<?xml version="1.0" encoding="utf-8"?>
<!-- Generator: Adobe Illustrator 22.1.0, SVG Export Plug-In . SVG Version: 6.00 Build 0)  -->
<svg version="1.1" id="图层_1" xmlns="http://www.w3.org/2000/svg" xmlns:xlink="http://www.w3.org/1999/xlink" x="0px" y="0px"
	 viewBox="0 0 17 17" style="enable-background:new 0 0 17 17;" xml:space="preserve">
<style type="text/css">
	.st0{fill:none;stroke:#0BB2FE;}
	.st1{fill:none;stroke:#0BB2FE;stroke-width:1.1;stroke-linecap:round;}
	.st2{fill:#0BB2FE;}
</style>
<title>我的广告</title>
<desc>Created with Sketch.</desc>
<g id="Page-1">
	<g id="我的广告_1_" transform="translate(-145.000000, -297.000000)">
		<g id="标题" transform="translate(87.000000, 101.000000)">
			<g id="_x36_" transform="translate(0.000000, 149.000000)">
				<g id="我的广告" transform="translate(59.000000, 47.000000)">
					<g id="广告">
						<path id="Rectangle-3" class="st0" d="M3,0.5C2.2,0.5,1.5,1.2,1.5,2v7c0,0.3,0.2,0.5,0.5,0.5h11c0.3,0,0.5-0.2,0.5-0.5V2
							c0-0.8-0.7-1.5-1.5-1.5H3z"/>
						<path id="Path-2-Copy" class="st1" d="M7.5,11.4v4.9"/>
						<g id="Group-11" transform="translate(2.899994, 2.500000)">
							<path id="Combined-Shape" class="st2" d="M2.4,0.9H3l1.6,3.9H3.9L3.4,3.7H2L1.6,4.9H0.9L2.4,0.9z M2.2,3.2h1L2.9,2.2
								C2.8,2,2.7,1.9,2.7,1.7c0,0.1-0.1,0.3-0.1,0.4L2.2,3.2z"/>
							<path id="Combined-Shape_1_" class="st2" d="M7.5,1.3C7.7,1.5,7.9,1.7,8,2c0.1,0.3,0.2,0.6,0.2,0.9c0,0.3,0,0.6-0.1,0.8
								C7.9,3.9,7.8,4.1,7.7,4.2C7.6,4.4,7.5,4.5,7.4,4.6C7.2,4.7,7.1,4.8,6.9,4.8c-0.2,0-0.4,0.1-0.6,0.1H4.8V0.9h1.4
								c0.3,0,0.5,0,0.7,0.1C7.1,1.1,7.3,1.1,7.5,1.3z M7.3,3.6c0.1-0.2,0.1-0.4,0.1-0.7c0-0.4-0.1-0.7-0.2-0.9
								C7.1,1.8,7,1.7,6.8,1.6c-0.1,0-0.3-0.1-0.6-0.1H5.5v2.7h0.7c0.2,0,0.4,0,0.6-0.1C6.9,4.2,7,4.1,7.1,4
								C7.2,3.9,7.3,3.8,7.3,3.6z"/>
						</g>
						<path id="Path-2" class="st1" d="M0,11.4h15.1"/>
					</g>
				</g>
			</g>
		</g>
	</g>
</g>
</svg>
