<?xml version="1.0" encoding="utf-8"?>
<!-- Generator: Adobe Illustrator 22.1.0, SVG Export Plug-In . SVG Version: 6.00 Build 0)  -->
<svg version="1.1" id="图层_1" xmlns="http://www.w3.org/2000/svg" xmlns:xlink="http://www.w3.org/1999/xlink" x="0px" y="0px"
	 viewBox="0 0 15 12" style="enable-background:new 0 0 15 12;" xml:space="preserve">
<style type="text/css">
	.st0{filter:url(#Adobe_OpacityMaskFilter);}
	.st1{fill:#FFFFFF;}
	.st2{mask:url(#mask-2_1_);fill:#02AAEE;}
</style>
<title>支付宝</title>
<desc>Created with Sketch.</desc>
<g id="Page-1">
	<g id="交易设置" transform="translate(-339.000000, -307.000000)">
		<g id="银行信息" transform="translate(328.000000, 193.000000)">
			<g id="_x33_" transform="translate(0.000000, 84.000000)">
				<g id="Group-10" transform="translate(11.000000, 0.000000)">
					<g id="支付宝" transform="translate(0.000000, 30.000000)">
						<g id="Clip-2">
						</g>
						<defs>
							<filter id="Adobe_OpacityMaskFilter" filterUnits="userSpaceOnUse" x="0" y="0" width="15" height="12">
								<feColorMatrix  type="matrix" values="1 0 0 0 0  0 1 0 0 0  0 0 1 0 0  0 0 0 1 0"/>
							</filter>
						</defs>
						<mask maskUnits="userSpaceOnUse" x="0" y="0" width="15" height="12" id="mask-2_1_">
							<g class="st0">
								<polygon id="path-1_1_" class="st1" points="0,0 15,0 15,12 0,12 								"/>
							</g>
						</mask>
						<path id="Fill-1" class="st2" d="M9.6,7.6c1-1.9,1.4-3.7,1.4-3.7H7.5V2.6h4.1V2H7.5V0H5.6v2H1.9v0.6h3.7v1.3H2.5v0.6h6.4
							c0,0.1,0,0.1-0.1,0.2C8.8,5.3,8.4,6.2,8,7C3.2,5.1,1.8,6.2,1.4,6.4c-3.2,2.3-0.2,5.1,0.3,5c3.4,0.8,5.5-0.7,7-2.5
							C8.8,9.1,8.9,9.1,9,9.1c1,0.6,6,2.9,6,2.9V9.2C14.2,9.2,11.5,8.2,9.6,7.6z M7.1,8.4c-2.3,3-5.1,2.1-5.6,1.9
							C0.4,10,0,7.9,1.4,7.3c2.3-0.8,4.4,0.1,5.9,0.8C7.2,8.3,7.1,8.4,7.1,8.4z"/>
					</g>
				</g>
			</g>
		</g>
	</g>
</g>
</svg>
