<?xml version="1.0" encoding="utf-8"?>
<!-- Generator: Adobe Illustrator 22.1.0, SVG Export Plug-In . SVG Version: 6.00 Build 0)  -->
<svg version="1.1" id="图层_1" xmlns="http://www.w3.org/2000/svg" xmlns:xlink="http://www.w3.org/1999/xlink" x="0px" y="0px"
	 viewBox="0 0 16 16" style="enable-background:new 0 0 16 16;" xml:space="preserve">
<style type="text/css">
	.st0{filter:url(#Adobe_OpacityMaskFilter);}
	.st1{fill:#FFFFFF;}
	.st2{mask:url(#mask-2_1_);fill:#039FEB;}
</style>
<title>支付宝</title>
<desc>Created with Sketch.</desc>
<g id="Page-1">
	<g id="名单管理-最近交易记录" transform="translate(-842.000000, -269.000000)">
		<g id="弹出" transform="translate(407.000000, 140.000000)">
			<g id="交易次数" transform="translate(25.000000, 102.000000)">
				<g id="_x34_" transform="translate(409.000000, 0.000000)">
					<g id="支付方式" transform="translate(1.000000, 27.000000)">
						<g id="支付宝">
							<g id="Clip-2">
							</g>
							<defs>
								<filter id="Adobe_OpacityMaskFilter" filterUnits="userSpaceOnUse" x="0" y="0" width="15.9" height="16">
									<feColorMatrix  type="matrix" values="1 0 0 0 0  0 1 0 0 0  0 0 1 0 0  0 0 0 1 0"/>
								</filter>
							</defs>
							<mask maskUnits="userSpaceOnUse" x="0" y="0" width="15.9" height="16" id="mask-2_1_">
								<g class="st0">
									<polygon id="path-1_1_" class="st1" points="0,0 15.9,0 15.9,16 0,16 									"/>
								</g>
							</mask>
							<path id="Fill-1" class="st2" d="M9.1,10.5c0,0-1.2,1-1.6,1.2c-0.3,0.2-0.7,0.3-1.1,0.5c-0.3,0.1-0.6,0.2-0.8,0.2
								c-0.2,0-0.4,0-0.6,0.1c0,0,0,0-0.1,0H4.8c-0.4,0-0.8,0-1.2-0.1C3.3,12.2,3,12,2.7,11.8c-0.3-0.2-0.5-0.4-0.6-0.7
								c-0.2-0.3-0.2-0.6-0.2-1c0-0.3,0.1-0.6,0.3-0.9c0.2-0.3,0.4-0.5,0.7-0.7c0.3-0.2,0.6-0.3,0.9-0.4C4,8,4.3,8,4.7,8
								C5,8,5.3,8,5.6,8.1c0.3,0.1,0.6,0.1,0.9,0.2C6.8,8.4,7,8.5,7.3,8.6C7.6,8.7,7.8,8.8,8,8.9C8.2,9,8.4,9.1,8.6,9.2
								C8.8,8.9,9,8.6,9.1,8.3c0.1-0.3,0.3-0.5,0.4-0.7c0.1-0.2,0.2-0.4,0.2-0.6c0.1-0.1,0.1-0.3,0.1-0.3H5V6.2h2.3V5H4.1V4.4h3.2
								v-1c0-0.1,0-0.1,0.1-0.2c0.1,0,0.2-0.1,0.3-0.1c0.1,0,0.3,0,0.4,0h0.9v1.3h3.3V5H8.9v1.2h2.6l0,0v0h0
								c-0.1,0.4-0.1,0.7-0.3,1.1c-0.1,0.3-0.3,0.7-0.5,1.1c-0.2,0.4-0.5,0.8-0.8,1.3c0,0,2.6,1.2,5.3,1.7c0.5-1,0.7-2.2,0.7-3.3
								c0-4.4-3.6-8-8-8C3.6,0,0,3.6,0,8c0,4.4,3.6,8,8,8c2.7,0,5.1-1.4,6.6-3.5C13.1,12.2,11.5,11.6,9.1,10.5z M2.9,10.1
								c0,1.4,1.5,1.5,1.8,1.5c0.8,0,1.4-0.3,1.9-0.6C7.1,10.8,7.9,10,7.9,10c0,0,0.1-0.1,0.1-0.1C7.8,9.8,7.6,9.7,7.3,9.6
								C7.1,9.5,6.1,8.9,5.1,8.8C3.4,8.6,2.9,9.7,2.9,10.1L2.9,10.1z"/>
						</g>
					</g>
				</g>
			</g>
		</g>
	</g>
</g>
</svg>
