<?xml version="1.0" encoding="utf-8"?>
<!-- Generator: Adobe Illustrator 22.1.0, SVG Export Plug-In . SVG Version: 6.00 Build 0)  -->
<svg version="1.1" id="图层_1" xmlns="http://www.w3.org/2000/svg" xmlns:xlink="http://www.w3.org/1999/xlink" x="0px" y="0px"
	 viewBox="0 0 16 18" style="enable-background:new 0 0 16 18;" xml:space="preserve">
<style type="text/css">
	.st0{fill:#FFFFFF;}
</style>
<title>安卓</title>
<desc>Created with Sketch.</desc>
<g id="Page-1">
	<g id="安全设置-Google认证" transform="translate(-506.000000, -201.000000)">
		<g id="_x31_" transform="translate(338.000000, 164.000000)">
			<g id="icon" transform="translate(27.000000, 31.000000)">
				<g id="google-商店" transform="translate(126.000000, 0.000000)">
					<g id="Group-9" transform="translate(15.000000, 6.000000)">
						<path id="安卓" class="st0" d="M15.1,6c0.3,0,0.5,0.1,0.7,0.3C15.9,6.4,16,6.7,16,6.9v5.3c0,0.2-0.1,0.4-0.3,0.6
							c-0.2,0.2-0.4,0.3-0.7,0.3h-0.3c-0.3,0-0.5-0.1-0.7-0.3c-0.2-0.2-0.3-0.4-0.3-0.6V6.9c0-0.3,0.1-0.5,0.3-0.6
							C14.3,6.1,14.5,6,14.8,6H15.1z M1.2,6c0.3,0,0.5,0.1,0.6,0.3c0.2,0.2,0.3,0.4,0.3,0.6v5.3c0,0.2-0.1,0.4-0.3,0.6
							c-0.2,0.2-0.4,0.3-0.6,0.3H0.9c-0.3,0-0.5-0.1-0.7-0.3C0.1,12.7,0,12.5,0,12.2V6.9c0-0.3,0.1-0.5,0.3-0.6C0.5,6.1,0.7,6,0.9,6
							H1.2L1.2,6z M10.6,1.8c0.2,0.1,0.4,0.2,0.6,0.4c0.2,0.2,0.4,0.4,0.6,0.6c0.2,0.2,0.4,0.5,0.5,0.7c0.2,0.3,0.3,0.6,0.3,0.9H3.1
							C3.3,3.8,3.6,3.3,4,2.9c0.4-0.4,0.8-0.7,1.2-1L4.3,0.5c0,0,0-0.1,0-0.1c0-0.1,0.1-0.1,0.2-0.2C4.6,0,4.6,0,4.7,0
							c0.1,0,0.1,0,0.2,0l0.9,1.5c0.3-0.2,0.7-0.3,1-0.4C7.1,1.1,7.5,1,7.9,1C8.6,1,9.3,1.2,10,1.5L10.9,0c0,0,0.1,0,0.1,0
							c0.1,0,0.2,0,0.3,0.1c0.1,0.1,0.2,0.1,0.2,0.2c0,0,0,0.1,0,0.1L10.6,1.8z M5.9,3.4c0.1,0,0.3-0.1,0.4-0.2
							C6.4,3.1,6.4,3,6.4,2.8S6.4,2.5,6.3,2.4C6.2,2.3,6,2.3,5.9,2.3c-0.1,0-0.3,0.1-0.4,0.2C5.4,2.5,5.4,2.7,5.4,2.8
							s0.1,0.3,0.2,0.4C5.6,3.3,5.7,3.4,5.9,3.4z M10.1,3.3c0.1,0,0.3-0.1,0.4-0.2c0.1-0.1,0.2-0.2,0.2-0.4c0-0.2-0.1-0.3-0.2-0.4
							c-0.1-0.1-0.2-0.2-0.4-0.2c-0.1,0-0.3,0.1-0.4,0.2C9.6,2.5,9.6,2.6,9.6,2.8c0,0.2,0.1,0.3,0.2,0.4C9.8,3.3,9.9,3.3,10.1,3.3z
							 M12.8,5.6l0,8.1c0,0.3-0.1,0.5-0.2,0.7c-0.2,0.2-0.4,0.3-0.6,0.3h-0.2v2.5c0,0.2-0.1,0.4-0.2,0.6c-0.2,0.2-0.4,0.3-0.6,0.3
							h-0.5c-0.2,0-0.4-0.1-0.6-0.3c-0.2-0.2-0.2-0.4-0.2-0.6v-2.5H6.4v2.5c0,0.2-0.1,0.4-0.2,0.6C6,17.9,5.8,18,5.6,18H5.1
							c-0.2,0-0.4-0.1-0.6-0.3c-0.2-0.2-0.2-0.4-0.2-0.6v-2.5H4c-0.2,0-0.4-0.1-0.6-0.3c-0.2-0.2-0.2-0.4-0.2-0.7V5.6H12.8z"/>
					</g>
				</g>
			</g>
		</g>
	</g>
</g>
</svg>
