<?xml version="1.0" encoding="utf-8"?>
<!-- Generator: Adobe Illustrator 22.1.0, SVG Export Plug-In . SVG Version: 6.00 Build 0)  -->
<svg version="1.1" id="图层_1" xmlns="http://www.w3.org/2000/svg" xmlns:xlink="http://www.w3.org/1999/xlink" x="0px" y="0px"
	 viewBox="0 0 13 17" style="enable-background:new 0 0 13 17;" xml:space="preserve">
<style type="text/css">
	.st0{fill:#FFFFFF;}
</style>
<title>apple</title>
<desc>Created with Sketch.</desc>
<g id="Page-1">
	<g id="安全设置-Google认证" transform="translate(-392.000000, -202.000000)">
		<g id="_x31_" transform="translate(338.000000, 164.000000)">
			<g id="icon" transform="translate(27.000000, 31.000000)">
				<g id="apple-商店">
					<g id="Group-7" transform="translate(27.000000, 7.000000)">
						<g id="Group-10">
							<g id="apple">
								<path id="Fill-1" class="st0" d="M10.8,8.6c0-2.2,1.7-3.2,1.7-3.2s-1.1-1.7-2.8-1.7c-1.4,0-1.9,0.7-3,0.7
									c-1.1,0-1.7-0.7-3-0.7C2.1,3.8,0,5.5,0,8.6c0,4.1,2.7,7.7,4.2,7.7c0.7,0,1.5-0.7,2.6-0.7c1.1,0,1.8,0.7,2.5,0.7
									c0.7,0,1.3-0.4,2.3-1.8c1-1.4,1.3-2.6,1.3-2.6C12.8,11.8,10.8,10.8,10.8,8.6z"/>
								<path id="Fill-4" class="st0" d="M9.5,0.3c0-0.1,0-0.2,0-0.3C7.7,0.1,6.3,1.7,6.3,3.6c0,0.1,0,0.2,0,0.3
									C8.1,3.8,9.5,2.3,9.5,0.3z"/>
							</g>
						</g>
					</g>
				</g>
			</g>
		</g>
	</g>
</g>
</svg>
