<?xml version="1.0" encoding="utf-8"?>
<!-- Generator: Adobe Illustrator 22.1.0, SVG Export Plug-In . SVG Version: 6.00 Build 0)  -->
<svg version="1.1" id="图层_1" xmlns="http://www.w3.org/2000/svg" xmlns:xlink="http://www.w3.org/1999/xlink" x="0px" y="0px"
	 viewBox="0 0 18 19" style="enable-background:new 0 0 18 19;" xml:space="preserve">
<style type="text/css">
	.st0{fill:#0BB2FE;}
</style>
<title>安全设置 蓝色</title>
<desc>Created with Sketch.</desc>
<g id="Page-1">
	<g id="个人信息" transform="translate(-86.000000, -154.000000)">
		<g id="标题" transform="translate(86.000000, 101.000000)">
			<g id="_x32_" transform="translate(0.000000, 53.000000)">
				<g id="_x31_">
					<g id="安全设置-蓝色">
						<path id="Fill-1" class="st0" d="M16,10.2c0-0.2,0-0.4,0-0.7s0-0.4,0-0.7l1.6-1.3c0.4-0.3,0.4-0.8,0.2-1.2l-1.7-3.1
							c-0.2-0.4-0.7-0.6-1.1-0.4l-1.9,0.8c-0.4-0.3-0.7-0.5-1.1-0.7l-0.3-2.1C11.6,0.3,11.2,0,10.7,0H7.3C6.8,0,6.4,0.3,6.3,0.8
							L6,2.9C5.7,3.1,5.3,3.3,4.9,3.6L3,2.8c-0.4-0.2-0.9,0-1.1,0.4L0.1,6.3C-0.1,6.7,0,7.2,0.3,7.5L2,8.8c0,0.2,0,0.4,0,0.7
							s0,0.4,0,0.7l-1.6,1.3c-0.4,0.3-0.4,0.8-0.2,1.2l1.7,3.1c0.2,0.4,0.7,0.6,1.1,0.4l1.9-0.8c0.4,0.3,0.7,0.5,1.1,0.7l0.3,2.1
							C6.4,18.7,6.8,19,7.3,19h3.5c0.5,0,0.8-0.3,0.9-0.8l0.3-2.1c0.4-0.2,0.7-0.4,1.1-0.7l1.9,0.8c0.1,0,0.2,0.1,0.3,0.1
							c0.3,0,0.6-0.2,0.8-0.5l1.7-3.1c0.2-0.4,0.1-0.9-0.2-1.2L16,10.2z M15.3,15.3l-2.2-0.9c-0.2-0.1-0.3,0-0.5,0.1
							c-0.4,0.3-0.9,0.6-1.4,0.8c-0.2,0.1-0.3,0.2-0.3,0.4L10.7,18l-3.4,0.1L7,15.7c0-0.2-0.1-0.3-0.3-0.4c-0.5-0.2-0.9-0.5-1.4-0.8
							c-0.1-0.1-0.2-0.1-0.3-0.1c-0.1,0-0.1,0-0.2,0l-2.1,0.9L1,12.3l1.8-1.5C2.9,10.7,3,10.5,3,10.3C3,10,2.9,9.8,2.9,9.5
							S3,9,3,8.7c0-0.2,0-0.3-0.2-0.5L1,6.8l1.7-3.1l2.2,0.9c0.2,0.1,0.3,0,0.5-0.1c0.4-0.3,0.9-0.6,1.4-0.8C6.8,3.7,7,3.5,7,3.3
							L7.3,1l3.4-0.1L11,3.3c0,0.2,0.1,0.3,0.3,0.4c0.5,0.2,0.9,0.5,1.4,0.8c0.1,0.1,0.3,0.1,0.5,0.1l2.1-0.9L17,6.7l-1.8,1.5
							C15.1,8.3,15,8.5,15,8.7c0,0.3,0.1,0.5,0.1,0.8c0,0.3,0,0.5-0.1,0.8c0,0.2,0,0.3,0.2,0.5l1.8,1.4L15.3,15.3z M9,5.7
							c-2,0-3.7,1.7-3.7,3.8c0,2.1,1.6,3.8,3.7,3.8c2,0,3.7-1.7,3.7-3.8S11,5.7,9,5.7z M9,12.3c-1.5,0-2.7-1.2-2.7-2.8
							C6.3,8,7.5,6.7,9,6.7c1.5,0,2.7,1.2,2.7,2.8C11.7,11,10.5,12.3,9,12.3z"/>
					</g>
				</g>
			</g>
		</g>
	</g>
</g>
</svg>
