<?xml version="1.0" encoding="utf-8"?>
<!-- Generator: Adobe Illustrator 22.1.0, SVG Export Plug-In . SVG Version: 6.00 Build 0)  -->
<svg version="1.1" id="图层_1" xmlns="http://www.w3.org/2000/svg" xmlns:xlink="http://www.w3.org/1999/xlink" x="0px" y="0px"
	 viewBox="0 0 15 10" style="enable-background:new 0 0 15 10;" xml:space="preserve">
<style type="text/css">
	.st0{fill:#5C8CCB;}
</style>
<title>银行</title>
<desc>Created with Sketch.</desc>
<g id="Page-1">
	<g id="交易设置" transform="translate(-339.000000, -199.000000)">
		<g id="银行信息" transform="translate(328.000000, 193.000000)">
			<g id="_x31_">
				<g id="Group-8" transform="translate(11.000000, 0.000000)">
					<g id="银行" transform="translate(0.000000, 6.000000)">
						<path id="Fill-1" class="st0" d="M14.2,0H0.8C0.4,0,0,0.4,0,0.8v1.1h15V0.8C15,0.4,14.6,0,14.2,0z M0.6,3.6H0v5.6
							C0,9.6,0.4,10,0.8,10h13.3c0.5,0,0.8-0.4,0.8-0.8V3.6H0.6z M1.7,6.7H5V6.1H1.7V6.7z M1.7,8.3h5.6V7.8H1.7V8.3z M13.3,7.8
							c0,0.3-0.2,0.5-0.5,0.5h-1.1c-0.3,0-0.5-0.2-0.5-0.5v0c0-0.3,0.2-0.5,0.5-0.5h1.1C13.1,7.2,13.3,7.5,13.3,7.8L13.3,7.8z"/>
					</g>
				</g>
			</g>
		</g>
	</g>
</g>
</svg>
