<?xml version="1.0" encoding="utf-8"?>
<!-- Generator: Adobe Illustrator 22.1.0, SVG Export Plug-In . SVG Version: 6.00 Build 0)  -->
<svg version="1.1" id="图层_1" xmlns="http://www.w3.org/2000/svg" xmlns:xlink="http://www.w3.org/1999/xlink" x="0px" y="0px"
	 viewBox="0 0 154 112" style="enable-background:new 0 0 154 112;" xml:space="preserve">
<style type="text/css">
	.st0{fill:#F0FAFF;}
	.st1{fill:#E2F6FF;}
	.st2{fill:#B8E9FF;}
</style>
<title>银行卡</title>
<desc>Created with Sketch.</desc>
<g id="Page-1">
	<g id="场外交易-未绑定支付方式" transform="translate(-882.000000, -236.000000)">
		<g id="弹出" transform="translate(664.000000, 143.000000)">
			<g id="银行卡" transform="translate(218.000000, 93.000000)">
				<path id="Rectangle-16" class="st0" d="M30,7h109.5c0.9,0,1.5,0.7,1.5,1.5V95c0,0.9-0.7,1.5-1.5,1.5H30c-0.9,0-1.5-0.7-1.5-1.5
					V8.5C28.4,7.7,29.1,7,30,7z"/>
				<path id="Rectangle-16-Copy-5" class="st1" d="M15.3,22.4h108c1.3,0,2.3,1,2.3,2.3v84.9c0,1.3-1,2.3-2.3,2.3h-108
					c-1.3,0-2.3-1-2.3-2.3V24.8C13,23.5,14,22.4,15.3,22.4z"/>
				<rect id="Rectangle-16-Copy" x="13" y="33.2" class="st2" width="112.6" height="15.4"/>
				<rect id="Rectangle-16-Copy-2" x="13" y="67.2" class="st2" width="68.6" height="3.1"/>
				<rect id="Rectangle-16-Copy-3" x="13" y="81.9" class="st2" width="50.9" height="3.1"/>
				<polygon id="Rectangle-16-Copy-4" class="st2" points="90.9,67.2 125.6,67.2 122.5,85 87.8,85 				"/>
				<polygon id="Star" class="st2" points="4.6,9.2 0.3,7 4.6,4.8 6.8,0.5 9,4.8 13.3,7 9,9.2 6.8,13.5 				"/>
				<polygon id="Star-Copy" class="st2" points="137.2,106.8 134.6,105.5 137.2,104.2 138.5,101.6 139.8,104.2 142.4,105.5 
					139.8,106.8 138.5,109.4 				"/>
				<polygon id="Star-Copy-2" class="st2" points="150.1,14.7 148.4,13.9 150.1,13.1 150.9,11.4 151.7,13.1 153.3,13.9 151.7,14.7 
					150.9,16.3 				"/>
				<polygon id="Star-Copy-3" class="st2" points="8.6,22.2 7,21.4 8.6,20.6 9.4,19 10.2,20.6 11.9,21.4 10.2,22.2 9.4,23.9 				"/>
			</g>
		</g>
	</g>
</g>
</svg>
