<?xml version="1.0" encoding="utf-8"?>
<!-- Generator: Adobe Illustrator 22.1.0, SVG Export Plug-In . SVG Version: 6.00 Build 0)  -->
<svg version="1.1" id="图层_1" xmlns="http://www.w3.org/2000/svg" xmlns:xlink="http://www.w3.org/1999/xlink" x="0px" y="0px"
	 viewBox="0 0 11 12" style="enable-background:new 0 0 11 12;" xml:space="preserve">
<style type="text/css">
	.st0{fill:#F5B22F;}
	.st1{fill:#FFFFFF;}
</style>
<title>保证金</title>
<desc>Created with Sketch.</desc>
<g id="Page-1">
	<g id="我的资产" transform="translate(-384.000000, -479.000000)">
		<g id="列表" transform="translate(329.000000, 205.000000)">
			<g id="认证列表">
				<g id="_x31_" transform="translate(53.000000, 11.000000)">
					<g id="保证金" transform="translate(2.000000, 261.000000)">
						<g transform="translate(0.000000, 2.000000)">
							<path id="Fill-1" class="st0" d="M10.6,1.7c-1.7,0-3.4-0.6-4.8-1.6C5.7,0,5.6,0,5.5,0C5.4,0,5.3,0.1,5.2,0.2
								c-1,1.2-3.6,1.5-4.8,1.5c-0.1,0-0.2,0-0.3,0.1C0,1.8,0,1.9,0,2v4.3C0,8.2,3,12,5.5,12C8.1,12,11,8.1,11,6.5V2
								c0-0.1,0-0.2-0.1-0.3C10.8,1.7,10.7,1.7,10.6,1.7L10.6,1.7z"/>
							<path id="Fill-2" class="st1" d="M3.9,3.3C3.8,3.2,3.7,3.1,3.6,3.2c-0.1,0-0.2,0.1-0.3,0.2c-0.1,0.2,0,0.3,0.1,0.4l1.3,1.3
								H3.3c-0.2,0-0.3,0.1-0.4,0.3c0,0.1,0,0.2,0.1,0.3C3,5.8,3.1,5.9,3.3,5.9h1.8v0.8H3.3c-0.2,0-0.3,0.1-0.4,0.3
								c0,0.1,0,0.2,0.1,0.4C3,7.3,3.1,7.4,3.3,7.4h1.8v1.5c0,0.2,0.1,0.3,0.3,0.4c0.1,0,0.3,0,0.4,0C5.8,9.1,5.9,9,5.9,8.9V7.4h1.8
								c0.2,0,0.3-0.1,0.4-0.3c0-0.1,0-0.2-0.1-0.4C8,6.7,7.9,6.6,7.7,6.6H5.9V5.9h1.8c0.2,0,0.3-0.1,0.4-0.3c0-0.1,0-0.2-0.1-0.3
								C8,5.2,7.9,5.1,7.7,5.1H6.3l1.3-1.3c0.1-0.1,0.2-0.2,0.1-0.4c0-0.1-0.2-0.2-0.3-0.3c-0.1,0-0.3,0-0.4,0.1L5.5,4.8L3.9,3.3z"
								/>
						</g>
					</g>
				</g>
			</g>
		</g>
	</g>
</g>
</svg>
