<?xml version="1.0" encoding="utf-8"?>
<!-- Generator: Adobe Illustrator 22.1.0, SVG Export Plug-In . SVG Version: 6.00 Build 0)  -->
<svg version="1.1" id="图层_1" xmlns="http://www.w3.org/2000/svg" xmlns:xlink="http://www.w3.org/1999/xlink" x="0px" y="0px"
	 viewBox="0 0 18 16" style="enable-background:new 0 0 18 16;" xml:space="preserve">
<style type="text/css">
	.st0{fill:none;stroke:#666666;stroke-width:0.88;stroke-linecap:round;}
	.st1{fill:#666666;}
</style>
<title>充币-灰</title>
<desc>Created with Sketch.</desc>
<g id="Page-1">
	<g id="资金记录" transform="translate(-145.000000, -156.000000)">
		<g id="标题" transform="translate(119.000000, 101.000000)">
			<g id="_x32_" transform="translate(26.000000, 53.000000)">
				<g id="充币-灰" transform="translate(0.299988, 3.000000)">
					<path id="Oval-2" class="st0" d="M6.6,13.4c0.9,0.4,2,0.6,3,0.6c4.1,0,7.4-3.1,7.4-7s-3.3-7-7.4-7S2.3,3.1,2.3,7"/>
					<g id="_xFFE5_" transform="translate(6.233333, 3.230769)">
						<path id="Rectangle-5-Copy" class="st1" d="M0.5,4.3h5.8c0.3,0,0.5,0.2,0.5,0.5l0,0c0,0.3-0.2,0.5-0.5,0.5H0.5
							C0.2,5.3,0,5.1,0,4.8l0,0C0,4.5,0.2,4.3,0.5,4.3z"/>
						<path id="Rectangle-5-Copy-5" class="st1" d="M3,7.7V2.5c0-0.2,0.2-0.4,0.4-0.4l0,0c0.2,0,0.4,0.2,0.4,0.4v5.2
							c0,0.2-0.2,0.4-0.4,0.4l0,0C3.2,8.1,3,7.9,3,7.7z"/>
						<path id="Rectangle-5-Copy-2" class="st1" d="M0.5,2.2h5.8c0.3,0,0.5,0.2,0.5,0.5l0,0c0,0.3-0.2,0.5-0.5,0.5H0.5
							C0.2,3.2,0,2.9,0,2.7l0,0C0,2.4,0.2,2.2,0.5,2.2z"/>
						<g id="Group-12" transform="translate(0.566667, 0.000000)">
							<path id="Rectangle-5-Copy-3" class="st1" d="M2.6,2.2l2-2c0.1-0.1,0.4-0.1,0.5,0l0,0c0.1,0.1,0.1,0.4,0,0.5l-2,2
								c-0.1,0.1-0.4,0.1-0.5,0l0,0C2.4,2.6,2.4,2.4,2.6,2.2z"/>
							<path id="Rectangle-5-Copy-4" class="st1" d="M3.1,2.2l-2-2c-0.1-0.1-0.4-0.1-0.5,0l0,0c-0.1,0.1-0.1,0.4,0,0.5l2,2
								c0.1,0.1,0.4,0.1,0.5,0l0,0C3.2,2.6,3.2,2.4,3.1,2.2z"/>
						</g>
					</g>
					<path id="Rectangle-5-Copy-6" class="st1" d="M0.7,10.1h4.1c0.2,0,0.4,0.2,0.4,0.4l0,0c0,0.2-0.2,0.4-0.4,0.4H0.7
						c-0.2,0-0.4-0.2-0.4-0.4l0,0C0.3,10.3,0.5,10.1,0.7,10.1z"/>
					<path id="Rectangle-5-Copy-7" class="st1" d="M3.8,8.8l1.4,1.4c0.1,0.1,0.1,0.4,0,0.5l0,0c-0.1,0.1-0.4,0.1-0.5,0L3.2,9.4
						C3.1,9.2,3.1,9,3.2,8.8l0,0C3.4,8.7,3.6,8.7,3.8,8.8z"/>
					<path id="Rectangle-5-Copy-8" class="st1" d="M4.6,10.3l-1.4,1.4c-0.1,0.1-0.1,0.4,0,0.5l0,0c0.1,0.1,0.4,0.1,0.5,0l1.4-1.4
						c0.1-0.1,0.1-0.4,0-0.5l0,0C5,10.2,4.7,10.2,4.6,10.3z"/>
				</g>
			</g>
		</g>
	</g>
</g>
</svg>
