<?xml version="1.0" encoding="utf-8"?>
<!-- Generator: Adobe Illustrator 22.1.0, SVG Export Plug-In . SVG Version: 6.00 Build 0)  -->
<svg version="1.1" id="图层_1" xmlns="http://www.w3.org/2000/svg" xmlns:xlink="http://www.w3.org/1999/xlink" x="0px" y="0px"
	 viewBox="0 0 12 14" style="enable-background:new 0 0 12 14;" xml:space="preserve">
<style type="text/css">
	.st0{fill:#FFAA3B;}
	.st1{fill:#FFC649;}
	.st2{fill:#F76B1C;}
</style>
<title>认证icon</title>
<desc>Created with Sketch.</desc>
<g id="Page-1">
	<g id="场外交易-暂无订单记录" transform="translate(-758.000000, -437.000000)">
		<g id="买入" transform="translate(630.000000, 297.000000)">
			<g id="人物信息" transform="translate(13.000000, 101.000000)">
				<g id="_x31_" transform="translate(2.000000, 1.000000)">
					<g id="内容" transform="translate(15.000000, 9.000000)">
						<g id="名字" transform="translate(55.000000, 3.000000)">
							<g id="已实名" transform="translate(0.000000, 23.000000)">
								<g id="Group-12">
									<g id="认证icon-" transform="translate(43.000000, 3.000000)">
										<g id="盾牌">
											<path id="Fill-1" class="st0" d="M11.7,1.9c-2-0.1-3.9-0.7-5.5-1.8L6,0L5.8,0.1C4.2,1.2,2.3,1.8,0.3,1.9H0v4.3
												c0,3.2,2.4,6,5.9,6.8l0.1,0l0.1,0C9.6,12.3,12,9.5,12,6.3V1.9H11.7z"/>
											<path id="Path" class="st1" d="M6,0.8c1.6,1,3.3,1.5,5.2,1.6v4.2C10.8,11.4,6,12.3,6,12.4v0c0,0-4.7-0.9-5.2-5.7V2.5
												c0,0,0.1,0,0.1,0C2.7,2.3,4.5,1.8,6,0.8z"/>
										</g>
										<g id="Group" transform="translate(2.181818, 4.307692)">
											<path id="Fill-1_1_" class="st2" d="M6.5,0H4.4v0.3c0.3,0,0.5,0.1,0.6,0.1c0.1,0,0.2,0.1,0.2,0.2c0,0.1,0,0.2-0.1,0.3
												C5.1,1,5.1,1.1,5,1.3C4.9,1.6,4.7,1.9,4.6,2.3C4.4,2.7,4.2,3.2,4,3.8C3.6,2.9,3.3,2.2,3.1,1.7c-0.2-0.5-0.3-0.8-0.4-1
												c0,0,0-0.1,0-0.1c0,0,0-0.1,0-0.1c0-0.1,0-0.1,0.1-0.1c0.1,0,0.3-0.1,0.5-0.1V0H0.5v0.3c0.1,0,0.2,0,0.2,0
												c0.1,0,0.1,0,0.2,0.1c0.1,0.1,0.2,0.1,0.2,0.2c0.1,0.1,0.1,0.1,0.2,0.3c0.1,0.3,0.4,0.9,0.7,1.7c0.3,0.8,0.7,1.6,1,2.4
												h0.7C4,4.6,4.2,4.2,4.4,3.8C4.5,3.4,4.7,3,4.9,2.6C5,2.2,5.2,1.9,5.3,1.6C5.5,1.3,5.6,1,5.6,0.9c0.1-0.1,0.1-0.2,0.2-0.3
												C5.9,0.5,5.9,0.5,6,0.4c0.1,0,0.2-0.1,0.2-0.1c0.1,0,0.1,0,0.2,0V0z"/>
										</g>
									</g>
								</g>
							</g>
						</g>
					</g>
				</g>
			</g>
		</g>
	</g>
</g>
</svg>
