<?xml version="1.0" encoding="utf-8"?>
<!-- Generator: Adobe Illustrator 22.1.0, SVG Export Plug-In . SVG Version: 6.00 Build 0)  -->
<svg version="1.1" id="图层_1" xmlns="http://www.w3.org/2000/svg" xmlns:xlink="http://www.w3.org/1999/xlink" x="0px" y="0px"
	 viewBox="0 0 89 85" style="enable-background:new 0 0 89 85;" xml:space="preserve">
<style type="text/css">
	.st0{fill:#2FA9EF;}
	.st1{fill:#43B9FC;}
	.st2{fill:#37AEF2;}
	.st3{fill:#57C0FC;}
	.st4{fill:none;stroke:#26A0E6;stroke-width:2.548;stroke-linecap:round;}
	.st5{fill:none;stroke:#37ABEE;stroke-width:2.548;stroke-linecap:round;}
</style>
<title>奖杯</title>
<desc>Created with Sketch.</desc>
<g id="Page-1">
	<g id="场外交易-暂无订单记录" transform="translate(-116.000000, -180.000000)">
		<g id="推荐交易商" transform="translate(15.000000, 89.000000)">
			<g id="交易商" transform="translate(35.000000, 65.000000)">
				<g id="_x31_" transform="translate(0.000000, 1.000000)">
					<g id="奖杯" transform="translate(67.000000, 25.000000)">
						<polygon id="Path-33" class="st0" points="16.3,0 71.7,0 71.7,14.6 16.3,14.6 						"/>
						<polygon id="Path-33-Copy" class="st1" points="16.3,0 43.5,0 43.5,14.6 16.3,14.6 						"/>
						<path id="Path-34" class="st2" d="M18.5,14.3c1.3,9.7,6,16.4,14.1,20c0.2,0.8,0.7,2.8,3,5c0.8,0.7,2.5,1.8,5.1,3.2v31
							c-2.5,1.2-4.2,2.3-5.1,3.2s-1.6,2.3-2.1,4h-4.9v4.3h29.6v-4.3h-5c-0.7-1.8-1.5-3.1-2.3-4s-2.5-1.9-4.9-3.2v-31
							c3.9-2.1,6.7-4.9,8.3-8.2c6.2-2.1,11.4-8.8,15.5-20H18.5z"/>
						<path id="Path-34-Copy" class="st3" d="M18.5,14.3c1.3,9.7,6,16.4,14.1,20c0.2,0.8,0.7,2.8,3,5c0.8,0.7,2.5,1.8,5.1,3.2v31
							c-2.5,1.2-4.2,2.3-5.1,3.2s-1.6,2.3-2.1,4h-4.9v4.3h14.6l0.9-70.6H18.5z"/>
						<path id="Path-50" class="st4" d="M78.6,6.9c3.4,2.6,3.4,4.6,0,6.1c-5,2.2-8.7-4.2-6.3-9.1c2.5-4.8,14.6-1.6,13.9,6
							S75.4,21.7,70.4,24.1c-2.6,1.2-6.5,3.2-9,6.2c-2.3,2.8-3.2,6.3-1.1,8.6c3,3.2,8.3,1.7,9.2-0.8c0.6-1.7-0.7-3.3-3.8-4.7"/>
						<path id="Path-50-Copy" class="st5" d="M8.1,6.9c-3.4,2.6-3.4,4.6,0,6.1c5,2.2,8.7-4.2,6.3-9.1s-14.6-1.6-13.9,6
							c0.8,7.5,10.8,11.9,15.9,14.3c2.6,1.2,6.5,3.2,9,6.2c2.3,2.8,3.2,6.3,1.1,8.6c-3,3.2-8.3,1.7-9.2-0.8
							c-0.6-1.7,0.7-3.3,3.8-4.7"/>
					</g>
				</g>
			</g>
		</g>
	</g>
</g>
</svg>
