<?xml version="1.0" encoding="utf-8"?>
<!-- Generator: Adobe Illustrator 22.1.0, SVG Export Plug-In . SVG Version: 6.00 Build 0)  -->
<svg version="1.1" id="图层_1" xmlns="http://www.w3.org/2000/svg" xmlns:xlink="http://www.w3.org/1999/xlink" x="0px" y="0px"
	 viewBox="0 0 16 15" style="enable-background:new 0 0 16 15;" xml:space="preserve">
<style type="text/css">
	.st0{fill:#32BAF7;}
</style>
<title>订单</title>
<desc>Created with Sketch.</desc>
<g id="Page-1">
	<g id="资金记录" transform="translate(-147.000000, -484.000000)">
		<g id="标题--灰" transform="translate(119.000000, 322.000000)">
			<g id="_x34_-copy" transform="translate(28.000000, 159.000000)">
				<path id="订单" class="st0" d="M14.7,3H1.4C0.7,3,0,3.6,0,4.2s0.7,1.2,1.4,1.2h0.1V18l0.5-0.5H2l1.4-1.4l1.5,1.5l0,0l0,0
					l1.5-1.5l1.5,1.5l0,0l0,0l1.5-1.5l1.5,1.5l0,0l0,0l1.5-1.5l1.4,1.4h0.1l0.5,0.5V5.5h0.2c0.7,0,1.3-0.6,1.3-1.2S15.4,3,14.7,3z
					 M14.8,4.8h-0.3v-1h-0.7v1.2h0v11.4l-1.2-1.1l0,0l0,0l-1.5,1.5l-1.5-1.5l0,0l0,0L8,16.6l-1.5-1.5l0,0l0,0l-1.5,1.5l-1.5-1.5l0,0
					l0,0l-1.2,1.1l0-12.6H1.5v1H1.2c-0.3,0-0.5-0.2-0.5-0.5c0-0.3,0.2-0.5,0.5-0.5h13.7c0.3,0,0.5,0.2,0.5,0.5
					C15.4,4.5,15.1,4.8,14.8,4.8z M3.8,9.3h3.9c0.2,0,0.3-0.2,0.3-0.3c0-0.2-0.2-0.3-0.3-0.3H3.8C3.6,8.7,3.5,8.8,3.5,9
					C3.5,9.2,3.7,9.3,3.8,9.3z M3.8,7.2h6.1c0.2,0,0.3-0.2,0.3-0.3c0-0.2-0.2-0.3-0.3-0.3H3.8c-0.2,0-0.3,0.2-0.3,0.3
					C3.5,7.1,3.7,7.2,3.8,7.2z M10.3,10.8H3.8c-0.2,0-0.3,0.2-0.3,0.3c0,0.2,0.2,0.3,0.3,0.3h6.4c0.2,0,0.3-0.2,0.3-0.3
					C10.6,11,10.5,10.8,10.3,10.8z M9.5,12.9H3.8c-0.2,0-0.3,0.2-0.3,0.3c0,0.2,0.2,0.3,0.3,0.3h5.7c0.2,0,0.3-0.2,0.3-0.3
					C9.9,13.1,9.7,12.9,9.5,12.9z"/>
			</g>
		</g>
	</g>
</g>
</svg>
