<?xml version="1.0" encoding="utf-8"?>
<!-- Generator: Adobe Illustrator 22.1.0, SVG Export Plug-In . SVG Version: 6.00 Build 0)  -->
<svg version="1.1" id="图层_1" xmlns="http://www.w3.org/2000/svg" xmlns:xlink="http://www.w3.org/1999/xlink" x="0px" y="0px"
	 viewBox="0 0 10 13" style="enable-background:new 0 0 10 13;" xml:space="preserve">
<style type="text/css">
	.st0{fill:#FFFFFF;}
</style>
<title>eos</title>
<desc>Created with Sketch.</desc>
<g id="Page-1">
	<g id="我的资产" transform="translate(-384.000000, -391.000000)">
		<g id="列表" transform="translate(329.000000, 205.000000)">
			<g id="icon" transform="translate(54.000000, 98.000000)">
				<g id="eos" transform="translate(1.000000, 88.000000)">
					<path id="Fill-1" d="M10,9.8C10,9.8,10,9.8,10,9.8L8.6,4.1c0-0.1-0.1-0.2-0.1-0.3L5.6,0.3C5.5,0.1,5.2,0,5,0h0
						C4.8,0,4.5,0.1,4.4,0.3L1.5,3.8C1.5,3.9,1.4,4,1.4,4.1L0,9.8c0,0,0,0,0,0c0,0.1,0,0.2,0,0.3c0,0,0,0.1,0.1,0.1
						c0.1,0.1,0.2,0.2,0.3,0.3l4.2,2.4C4.7,13,4.9,13,5,13h0c0.1,0,0.3,0,0.4-0.1l4.1-2.3l0.2-0.1c0.1-0.1,0.1-0.1,0.2-0.2
						c0,0,0-0.1,0.1-0.1C10,10,10,9.9,10,9.8z"/>
					<path id="Fill-3" class="st0" d="M9.4,9.8L8.1,4.2c0,0,0-0.1,0-0.1L5.2,0.6c0,0,0,0,0,0l-0.1,0c0,0,0,0-0.1,0c0,0,0,0-0.1,0
						l-0.1,0c0,0,0,0,0,0L2,4.1c0,0,0,0,0,0v0c0,0,0,0,0,0.1L0.5,9.9V10c0,0,0,0,0,0c0,0,0,0.1,0.1,0.1l4.2,2.4c0,0,0,0,0,0
						c0,0,0,0,0.1,0c0,0,0,0,0.1,0c0,0,0,0,0,0l4.2-2.4c0,0,0.1-0.1,0.1-0.1C9.5,10,9.5,9.9,9.4,9.8z M8.7,8.6L7.3,6.4L7.8,5
						L8.7,8.6z M5.2,1.3l2.4,2.9L7,5.9L5.2,3.1V1.3z M5,3.6l1.8,2.9L5.7,9.7H4.3L3.2,6.5L5,3.6z M4.8,1.3v1.8L3,6L2.4,4.3L4.8,1.3z
						 M2.2,5l0.5,1.4L1.3,8.6L2.2,5z M2.9,7l1,2.7H1.1L2.9,7z M1.5,10.1H4l0.6,1.7L1.5,10.1z M5,11.7l-0.5-1.5h1.1L5,11.7z
						 M5.4,11.9L6,10.1h2.4L5.4,11.9z M6.2,9.7l1-2.8l1.7,2.8H6.2z"/>
				</g>
			</g>
		</g>
	</g>
</g>
</svg>
