<?xml version="1.0" encoding="utf-8"?>
<!-- Generator: Adobe Illustrator 22.1.0, SVG Export Plug-In . SVG Version: 6.00 Build 0)  -->
<svg version="1.1" id="图层_1" xmlns="http://www.w3.org/2000/svg" xmlns:xlink="http://www.w3.org/1999/xlink" x="0px" y="0px"
	 viewBox="0 0 13 13" style="enable-background:new 0 0 13 13;" xml:space="preserve">
<style type="text/css">
	.st0{fill:#666666;}
</style>
<title>安全退出-灰</title>
<desc>Created with Sketch.</desc>
<g id="Page-1">
	<g id="变换-2" transform="translate(-603.000000, -209.000000)">
		<g id="我的" transform="translate(571.000000, 93.000000)">
			<g id="_x34_" transform="translate(3.000000, 112.000000)">
				<g id="安全退出-灰" transform="translate(29.000000, 4.000000)">
					<path id="退出-_x28_3_x29_" class="st0" d="M9,12.4H1.5c-0.5,0-0.9-0.5-0.9-1V1.6c0-0.6,0.4-1,0.9-1h7.4
						c0.2,0,0.3-0.1,0.3-0.3C9.2,0.2,9.1,0,9,0H1.5C0.7,0,0,0.7,0,1.6v9.7C0,12.3,0.7,13,1.5,13h7.4c0.2,0,0.3-0.1,0.3-0.3
						C9.2,12.5,9.1,12.4,9,12.4z M12.9,6.2l-1.7-1.9l0,0L10.9,4l-0.3-0.4c-0.1-0.1-0.1-0.1-0.2-0.1c-0.1,0-0.1,0-0.2,0.1
						C10,3.7,10,3.9,10.1,4l0.5,0.6l0,0L12,6.2H6.4c-0.2,0-0.3,0.1-0.3,0.3c0,0.2,0.1,0.3,0.3,0.3H12l-1.3,1.4l-0.1,0.1L10.1,9
						c-0.1,0.1,0,0.3,0,0.4c0.1,0.1,0.1,0.1,0.2,0.1c0.1,0,0.2,0,0.2-0.1l0.2-0.2l0.4-0.5l0.1-0.1l1.7-1.9C13,6.7,13,6.6,13,6.5l0,0
						l0,0C13,6.4,13,6.3,12.9,6.2z"/>
				</g>
			</g>
		</g>
	</g>
</g>
</svg>
