<?xml version="1.0" encoding="utf-8"?>
<!-- Generator: Adobe Illustrator 22.1.0, SVG Export Plug-In . SVG Version: 6.00 Build 0)  -->
<svg version="1.1" id="图层_1" xmlns="http://www.w3.org/2000/svg" xmlns:xlink="http://www.w3.org/1999/xlink" x="0px" y="0px"
	 viewBox="0 0 18 16" style="enable-background:new 0 0 18 16;" xml:space="preserve">
<style type="text/css">
	.st0{fill:#0BB2FE;}
</style>
<title>Fill 1</title>
<desc>Created with Sketch.</desc>
<g id="Page-1">
	<g id="场外交易-进行中订单-联系卖家" transform="translate(-1718.000000, -2033.000000)">
		<g id="暂无未完成订单" transform="translate(15.000000, 1080.000000)">
			<g id="_x34_" transform="translate(35.000000, 939.000000)">
				<g id="标题" transform="translate(14.000000, 10.000000)">
					<path id="Fill-1" class="st0" d="M1661.5,17.9c0.3-0.2,0.6-0.3,0.9-0.3c0.2,0,0.4,0,0.6,0c5,0,9-3.1,9-6.8c0-3.8-4-6.8-9-6.8
						s-9,3.1-9,6.8c0,2.4,1.7,4.7,4.5,5.9c0.1,0.1,0.3,0.2,0.3,0.3c0,0.1-1.1,2-0.6,2.3C1658.6,19.5,1660.9,18.3,1661.5,17.9z"/>
				</g>
			</g>
		</g>
	</g>
</g>
</svg>
