<?xml version="1.0" encoding="utf-8"?>
<!-- Generator: Adobe Illustrator 22.1.0, SVG Export Plug-In . SVG Version: 6.00 Build 0)  -->
<svg version="1.1" id="图层_1" xmlns="http://www.w3.org/2000/svg" xmlns:xlink="http://www.w3.org/1999/xlink" x="0px" y="0px"
	 viewBox="0 0 14 14" style="enable-background:new 0 0 14 14;" xml:space="preserve">
<style type="text/css">
	.st0{fill:#91DCFF;}
	.st1{fill:#FFFFFF;}
</style>
<title>问好</title>
<desc>Created with Sketch.</desc>
<path id="Fill-1" class="st0" d="M7,0C3.1,0,0,3.1,0,7c0,3.9,3.1,7,7,7c3.9,0,7-3.1,7-7C14,3.1,10.9,0,7,0z M6.2,11.1h1.2V9.9H6.2
	V11.1z M8.9,6.2C8.7,6.4,8.5,6.7,8.1,7.1C7.7,7.5,7.5,7.7,7.4,7.9C7.3,8,7.3,8.3,7.3,8.7L7.4,9H6.2l0-0.3c0-0.4,0.1-0.8,0.2-1.1
	C6.5,7.3,6.7,7,7.1,6.6c0.4-0.4,0.6-0.6,0.7-0.8c0.1-0.1,0.1-0.3,0.1-0.5c0-0.3-0.1-0.5-0.3-0.7C7.4,4.4,7.2,4.3,6.8,4.3
	c-0.7,0-1,0.5-1.1,1.4H4.5l0-0.1c0-0.4,0.1-0.8,0.2-1C4.8,4.3,5,4.1,5.2,3.9C5.4,3.7,5.7,3.5,6,3.4c0.3-0.1,0.6-0.1,0.9-0.1
	c0.6,0,1.2,0.2,1.6,0.6c0.4,0.4,0.6,0.9,0.6,1.5C9.1,5.7,9,6,8.9,6.2z"/>
<rect x="6.2" y="9.9" class="st1" width="1.2" height="1.2"/>
</svg>
