<?xml version="1.0" encoding="utf-8"?>
<!-- Generator: Adobe Illustrator 22.1.0, SVG Export Plug-In . SVG Version: 6.00 Build 0)  -->
<svg version="1.1" id="图层_1" xmlns="http://www.w3.org/2000/svg" xmlns:xlink="http://www.w3.org/1999/xlink" x="0px" y="0px"
	 viewBox="0 0 20 21" style="enable-background:new 0 0 20 21;" xml:space="preserve">
<style type="text/css">
	.st0{fill:#B8B8B8;}
	.st1{fill:none;stroke:#B8B8B8;stroke-width:0.9;}
	.st2{fill:none;stroke:#B8B8B8;stroke-width:0.7;stroke-linecap:round;}
</style>
<title>黑名单</title>
<desc>Created with Sketch.</desc>
<g id="Page-1">
	<g id="场外交易-黑_x2F_白名单注解" transform="translate(-1708.000000, -1192.000000)">
		<g id="暂无未完成订单" transform="translate(15.000000, 1080.000000)">
			<g id="已完成订单">
				<g transform="translate(34.000000, 65.000000)">
					<g id="_x31_" transform="translate(0.000000, 47.000000)">
						<g id="名单" transform="translate(64.000000, 0.000000)">
							<g transform="translate(1585.000000, 0.000000)">
								<g id="黑名单">
									<g transform="translate(10.000000, 0.000000)">
										<polygon id="Fill-1" class="st0" points="9.1,0.4 9.1,0 7.5,0 7.5,0.4 6.3,0.4 6.3,2.1 10.2,2.1 10.2,0.4 										"/>
										<g id="Group-5" transform="translate(0.000000, 0.854688)">
											<circle id="Oval-5" class="st1" cx="16" cy="14" r="3"/>
											<path id="Fill-4" class="st0" d="M15.5,18.8l-14.5,0L1,1.1l4.9,0V0H1C0.4,0,0,0.5,0,1v17.8c0,0.6,0.4,1,1,1h14.6
												c0.6,0,1-0.5,1-1v-0.4h-1.1V18.8z M15.6,0h-4.9v1l4.8,0v8.6h1.1V1C16.6,0.5,16.1,0,15.6,0z"/>
											<g id="Group-14" transform="translate(13.900024, 12.145312)">
												<path id="Path-5" class="st2" d="M2.1,0.4v2.8"/>
												<path id="Path-5-Copy" class="st2" d="M3.5,1.8H0.7"/>
											</g>
										</g>
										<path class="st0" d="M8.4,3c-2.2,0-4,1.8-4,4c0,2.2,1.8,4,4,4c2.2,0,4-1.8,4-4C12.4,4.8,10.6,3,8.4,3z M8.4,10.4
											C6.5,10.4,5,8.9,5,7c0-0.8,0.3-1.6,0.8-2.2l1.5,1.5c0,0.4,0.2,0.7,0.5,0.8C7.1,7.4,6.7,8,6.7,8.7h3l0.9,0.9
											C10,10.1,9.2,10.4,8.4,10.4z M11,9.2l-1-1C9.9,7.7,9.5,7.3,9,7.1c0.3-0.2,0.5-0.6,0.5-1C9.5,5.5,9,5,8.4,5
											C8,5,7.6,5.2,7.4,5.6L6.2,4.4c0.6-0.5,1.4-0.8,2.2-0.8c1.9,0,3.4,1.5,3.4,3.4C11.8,7.8,11.5,8.6,11,9.2z"/>
										<g id="Group-16" transform="translate(1.000000, 11.000000)">
											<g id="Group-15">
												<path id="Path-6" class="st2" d="M1.6,1.7h0.8"/>
												<path id="Path-6-Copy" class="st2" d="M3.6,1.7h6.5"/>
											</g>
											<g id="Group-15-Copy" transform="translate(0.000000, 2.500000)">
												<path id="Path-6_1_" class="st2" d="M1.6,1.7h0.8"/>
												<path id="Path-6-Copy_1_" class="st2" d="M3.6,1.7h6.5"/>
											</g>
											<g id="Group-15-Copy-2" transform="translate(0.000000, 5.000000)">
												<path id="Path-6_2_" class="st2" d="M1.6,1.7h0.7"/>
												<path id="Path-6-Copy_2_" class="st2" d="M3.6,1.7h6.5"/>
											</g>
										</g>
									</g>
								</g>
							</g>
						</g>
					</g>
				</g>
			</g>
		</g>
	</g>
</g>
</svg>
