<?xml version="1.0" encoding="utf-8"?>
<!-- Generator: Adobe Illustrator 22.1.0, SVG Export Plug-In . SVG Version: 6.00 Build 0)  -->
<svg version="1.1" id="图层_1" xmlns="http://www.w3.org/2000/svg" xmlns:xlink="http://www.w3.org/1999/xlink" x="0px" y="0px"
	 viewBox="0 0 17 16" style="enable-background:new 0 0 17 16;" xml:space="preserve">
<style type="text/css">
	.st0{filter:url(#Adobe_OpacityMaskFilter);}
	.st1{fill:#FFFFFF;}
	.st2{mask:url(#mask-2_1_);fill:#21AE3C;}
</style>
<title>微信</title>
<desc>Created with Sketch.</desc>
<g id="Page-1">
	<g id="名单管理-最近交易记录" transform="translate(-867.000000, -269.000000)">
		<g id="弹出" transform="translate(407.000000, 140.000000)">
			<g id="交易次数" transform="translate(25.000000, 102.000000)">
				<g id="_x34_" transform="translate(409.000000, 0.000000)">
					<g id="支付方式" transform="translate(1.000000, 27.000000)">
						<g id="微信" transform="translate(25.087719, 0.800000)">
							<g id="Clip-2">
							</g>
							<defs>
								<filter id="Adobe_OpacityMaskFilter" filterUnits="userSpaceOnUse" x="0" y="0" width="16.7" height="14.4">
									<feColorMatrix  type="matrix" values="1 0 0 0 0  0 1 0 0 0  0 0 1 0 0  0 0 0 1 0"/>
								</filter>
							</defs>
							<mask maskUnits="userSpaceOnUse" x="0" y="0" width="16.7" height="14.4" id="mask-2_1_">
								<g class="st0">
									<polygon id="path-1_1_" class="st1" points="0,0 16.7,0 16.7,14.4 0,14.4 									"/>
								</g>
							</mask>
							<path id="Fill-1" class="st2" d="M15.8,3.8c0,0-7.1,4.4-9.7,5.5c-0.1,0-0.2,0-0.3,0C5.5,9.2,5,7.8,4.6,6.9
								C4.1,6,3.6,5.2,4,5.1C4.5,5,5.7,6.6,6.4,6.9c0.1,0,0.2,0.1,0.3,0c0.2-0.1,8-3.7,8.6-3.9c-1.5-1.8-4-3-6.9-3
								C3.7,0,0,3.1,0,6.9c0,3.1,2,4.4,3,5.3c0.3,0.3,0.2,0.9,0,1.3c-0.2,0.6-0.2,0.8,0,0.9c0.4,0.2,1.7-0.8,2.6-0.9
								c0.1,0,0.2,0,0.3,0c0.8,0.2,1.6,0.3,2.5,0.3c4.6,0,8.4-3.1,8.4-6.9C16.7,5.8,16.4,4.7,15.8,3.8z"/>
						</g>
					</g>
				</g>
			</g>
		</g>
	</g>
</g>
</svg>
