<?xml version="1.0" encoding="utf-8"?>
<!-- Generator: Adobe Illustrator 22.1.0, SVG Export Plug-In . SVG Version: 6.00 Build 0)  -->
<svg version="1.1" id="图层_1" xmlns="http://www.w3.org/2000/svg" xmlns:xlink="http://www.w3.org/1999/xlink" x="0px" y="0px"
	 viewBox="0 0 17 16" style="enable-background:new 0 0 17 16;" xml:space="preserve">
<style type="text/css">
	.st0{fill:none;stroke:#666666;stroke-width:0.96;}
	.st1{fill:#666666;}
</style>
<title>记录 -灰</title>
<desc>Created with Sketch.</desc>
<g id="Page-1">
	<g id="资金记录" transform="translate(-126.000000, -227.000000)">
		<g id="标题" transform="translate(119.000000, 101.000000)">
			<g id="_x34_" transform="translate(7.000000, 123.000000)">
				<g id="记录--灰" transform="translate(0.500000, 2.000000)">
					<path id="Rectangle-5" class="st0" d="M13.5,2.9H2.5c-1.1,0-2,0.9-2,1.9v9.7c0,1.1,0.9,1.9,2,1.9h11.1c1.1,0,2-0.9,2-1.9V4.9
						C15.5,3.8,14.6,2.9,13.5,2.9z"/>
					<path id="Rectangle-6" class="st1" d="M3.8,2.4L3.8,2.4c0.3,0,0.5,0.2,0.5,0.5l0,0c0,0.3-0.2,0.5-0.5,0.5l0,0
						c-0.3,0-0.5-0.2-0.5-0.5l0,0C3.3,2.7,3.5,2.4,3.8,2.4z"/>
					<path id="Rectangle-6-Copy" class="st1" d="M6.3,2.4L6.3,2.4c0.3,0,0.5,0.2,0.5,0.5l0,0c0,0.3-0.2,0.5-0.5,0.5l0,0
						C6,3.4,5.8,3.2,5.8,2.9l0,0C5.8,2.7,6,2.4,6.3,2.4z"/>
					<g id="Group-13" transform="translate(2.461538, 0.485707)">
						<path id="Rectangle-6-Copy-4" class="st1" d="M2.6,0.7L2.6,0.7C2.8,0.7,3,0.9,3,1.1v2.6C3,4,2.8,4.1,2.6,4.1l0,0
							C2.4,4.1,2.2,4,2.2,3.7V1.1C2.2,0.9,2.4,0.7,2.6,0.7z"/>
						<g id="Group-14" transform="translate(0.861553, 6.071429)">
							<path id="Rectangle-6-Copy-6" class="st1" d="M8.9,1.5L8.9,1.5c0,0.2-0.2,0.4-0.4,0.4H0.6c-0.2,0-0.4-0.2-0.4-0.4l0,0
								c0-0.2,0.2-0.4,0.4-0.4h7.9C8.7,1.1,8.9,1.3,8.9,1.5z"/>
							<path id="Rectangle-6-Copy-7" class="st1" d="M4.7,4.8L4.7,4.8c0,0.2-0.2,0.4-0.4,0.4H0.4C0.2,5.2,0,5,0,4.8l0,0
								c0-0.2,0.2-0.4,0.4-0.4h3.8C4.5,4.4,4.7,4.5,4.7,4.8z"/>
						</g>
						<path id="Rectangle-6-Copy-5" class="st1" d="M8.8,0.7L8.8,0.7c0.2,0,0.4,0.2,0.4,0.4v2.6C9.2,4,9,4.1,8.8,4.1l0,0
							C8.5,4.1,8.4,4,8.4,3.7V1.1C8.4,0.9,8.5,0.7,8.8,0.7z"/>
					</g>
					<path id="Rectangle-6-Copy-2" class="st1" d="M10,2.4L10,2.4c0.3,0,0.5,0.2,0.5,0.5l0,0c0,0.3-0.2,0.5-0.5,0.5l0,0
						c-0.3,0-0.5-0.2-0.5-0.5l0,0C9.5,2.7,9.7,2.4,10,2.4z"/>
					<path id="Rectangle-6-Copy-3" class="st1" d="M12.4,2.4L12.4,2.4c0.3,0,0.5,0.2,0.5,0.5l0,0c0,0.3-0.2,0.5-0.5,0.5l0,0
						c-0.3,0-0.5-0.2-0.5-0.5l0,0C11.9,2.7,12.2,2.4,12.4,2.4z"/>
				</g>
			</g>
		</g>
	</g>
</g>
</svg>
