<?xml version="1.0" encoding="utf-8"?>
<!-- Generator: Adobe Illustrator 22.1.0, SVG Export Plug-In . SVG Version: 6.00 Build 0)  -->
<svg version="1.1" id="图层_1" xmlns="http://www.w3.org/2000/svg" xmlns:xlink="http://www.w3.org/1999/xlink" x="0px" y="0px"
	 viewBox="0 0 87 41" style="enable-background:new 0 0 87 41;" xml:space="preserve">
<style type="text/css">
	.st0{filter:url(#Adobe_OpacityMaskFilter);}
	.st1{fill:#FFFFFF;}
	.st2{mask:url(#mask-2_1_);fill:#FFFFFF;}
	.st3{filter:url(#Adobe_OpacityMaskFilter_1_);}
	.st4{mask:url(#mask-4_1_);fill:#FFFFFF;}
	.st5{filter:url(#Adobe_OpacityMaskFilter_2_);}
	.st6{mask:url(#mask-6_1_);fill:#FFFFFF;}
</style>
<title>logo-白色</title>
<desc>Created with Sketch.</desc>
<g id="Page-1">
	<g id="首页" transform="translate(-357.000000, -39.000000)">
		<g id="banner">
			<g id="logo">
				<g transform="translate(0.000000, 30.000000)">
					<g id="logo-白色" transform="translate(357.000000, 9.000000)">
						<g id="Group-8">
							<g id="Group-3" transform="translate(0.000000, 17.800937)">
								<g id="Clip-2">
								</g>
								<defs>
									<filter id="Adobe_OpacityMaskFilter" filterUnits="userSpaceOnUse" x="0" y="0.4" width="37.3" height="22.8">
										<feColorMatrix  type="matrix" values="1 0 0 0 0  0 1 0 0 0  0 0 1 0 0  0 0 0 1 0"/>
									</filter>
								</defs>
								<mask maskUnits="userSpaceOnUse" x="0" y="0.4" width="37.3" height="22.8" id="mask-2_1_">
									<g class="st0">
										<polygon id="path-1_1_" class="st1" points="0,0.4 37.3,0.4 37.3,23.1 0,23.1 										"/>
									</g>
								</mask>
								<path id="Fill-1" class="st2" d="M20.4,23.1c-2.3,0-4.7-0.4-6.9-1.2c-4.2-1.5-7.8-4.3-10.2-8C0.9,10.3-0.2,5.9,0,1.7
									c0-0.8,0.7-1.4,1.5-1.3c0.8,0,1.4,0.7,1.3,1.5C2.6,5.5,3.6,9.3,5.7,12.4c2.1,3.2,5.1,5.6,8.8,6.9c7.4,2.6,15.7,0.1,20.3-6.1
									c0.5-0.6,1.3-0.8,2-0.3c0.6,0.5,0.8,1.3,0.3,2C33.2,20.1,26.9,23.1,20.4,23.1"/>
							</g>
							<g id="Group-6" transform="translate(3.344444, 0.335803)">
								<g id="Clip-5">
								</g>
								<defs>
									<filter id="Adobe_OpacityMaskFilter_1_" filterUnits="userSpaceOnUse" x="0.3" y="0.1" width="37.3" height="22.9">
										<feColorMatrix  type="matrix" values="1 0 0 0 0  0 1 0 0 0  0 0 1 0 0  0 0 0 1 0"/>
									</filter>
								</defs>
								<mask maskUnits="userSpaceOnUse" x="0.3" y="0.1" width="37.3" height="22.9" id="mask-4_1_">
									<g class="st3">
										<polygon id="path-3_1_" class="st1" points="0.3,0.1 37.6,0.1 37.6,23.1 0.3,23.1 										"/>
									</g>
								</mask>
								<path id="Fill-4" class="st4" d="M36.2,23.1C36.1,23.1,36.1,23.1,36.2,23.1c-0.9-0.1-1.5-0.7-1.4-1.5
									C35.3,13.8,30.5,6.6,23.2,4C15.8,1.3,7.5,3.9,2.9,10.1c-0.5,0.6-1.3,0.8-2,0.3c-0.6-0.5-0.8-1.3-0.3-2
									c5.3-7.3,15-10.2,23.6-7.1c8.5,3.1,14.1,11.5,13.5,20.4C37.5,22.5,36.9,23.1,36.2,23.1"/>
							</g>
							<path id="Fill-7" class="st1" d="M2.6,13.6c-0.3,0-0.6,0.2-0.7,0.5c-0.1,0.2-0.1,0.4,0,0.6c0.1,0.2,0.3,0.3,0.5,0.4
								c0.2,0.1,0.4,0.1,0.6,0c0.2-0.1,0.3-0.2,0.4-0.4c0.2-0.4-0.1-0.9-0.5-1C2.8,13.6,2.7,13.6,2.6,13.6 M2.6,16.4
								c-0.2,0-0.5,0-0.7-0.1c-1-0.4-1.6-1.5-1.2-2.5c0.4-1,1.5-1.6,2.6-1.2c1,0.4,1.6,1.5,1.2,2.5C4.2,15.9,3.4,16.4,2.6,16.4"/>
							<path id="Fill-9" class="st1" d="M28.5,23.3c-0.2,0-0.4,0.1-0.5,0.3c-0.1,0.3,0,0.6,0.3,0.6c0.3,0.1,0.6,0,0.7-0.3
								c0.1-0.3,0-0.6-0.3-0.6C28.6,23.3,28.6,23.3,28.5,23.3 M28.5,25.3c-0.2,0-0.3,0-0.5-0.1c-0.8-0.3-1.2-1.1-0.9-1.9
								c0.3-0.8,1.2-1.2,2-0.9c0.8,0.3,1.2,1.2,0.9,1.9C29.7,24.9,29.1,25.3,28.5,25.3"/>
							<path id="Fill-11" class="st1" d="M20.5,29.4c-0.2,0-0.3,0-0.5,0.1c-0.3,0.1-0.5,0.4-0.6,0.7c-0.1,0.3-0.1,0.6,0,0.9
								c0.1,0.3,0.4,0.5,0.7,0.6c0.3,0.1,0.6,0.1,0.9,0c0.3-0.1,0.5-0.4,0.6-0.7c0.1-0.3,0.1-0.6,0-0.9c-0.1-0.3-0.4-0.5-0.7-0.6
								C20.8,29.4,20.6,29.4,20.5,29.4 M20.5,33.1c-0.3,0-0.6-0.1-0.9-0.2c-1.4-0.5-2.1-2-1.6-3.3c0.5-1.3,2-2,3.4-1.6
								c0.7,0.2,1.2,0.7,1.5,1.3c0.3,0.6,0.3,1.3,0.1,2C22.6,32.5,21.6,33.1,20.5,33.1"/>
							<path id="Fill-13" class="st1" d="M18.5,30.6c-0.2,0-0.4-0.1-0.6-0.2L3.2,16.1c-0.3-0.3-0.3-0.8,0-1.1s0.8-0.3,1.1,0L19,29.2
								c0.3,0.3,0.3,0.8,0,1.1C18.9,30.5,18.7,30.6,18.5,30.6"/>
							<path id="Fill-15" class="st1" d="M22.4,30.7c-0.2,0-0.4-0.1-0.6-0.2c-0.3-0.3-0.3-0.8,0-1.1l5.1-5c0.3-0.3,0.8-0.3,1.1,0
								c0.3,0.3,0.3,0.8,0,1.1l-5.1,5C22.8,30.6,22.6,30.7,22.4,30.7"/>
							<path id="Fill-17" class="st1" d="M38.2,27.7c0.2,0.1,0.4,0.1,0.6,0c0.2-0.1,0.3-0.2,0.4-0.4c0.1-0.4-0.1-0.9-0.5-1
								c-0.4-0.1-0.9,0.1-1,0.5C37.6,27.1,37.8,27.5,38.2,27.7 M38.5,28.9c-0.2,0-0.5,0-0.7-0.1c-1-0.4-1.6-1.5-1.2-2.5
								c0.4-1,1.5-1.6,2.6-1.2c1,0.4,1.6,1.5,1.2,2.5c-0.2,0.5-0.6,0.9-1,1.1C39.1,28.8,38.8,28.9,38.5,28.9"/>
							<path id="Fill-19" class="st1" d="M12.5,17c-0.1,0-0.1,0-0.2,0c-0.1,0.1-0.2,0.2-0.3,0.3c0,0.1,0,0.3,0,0.4
								c0.1,0.1,0.2,0.2,0.3,0.3h0c0.1,0,0.3,0,0.4,0c0.1-0.1,0.2-0.2,0.3-0.3c0-0.1,0-0.3,0-0.4c-0.1-0.1-0.2-0.2-0.3-0.3
								C12.6,17,12.6,17,12.5,17 M12.5,19c-0.2,0-0.4,0-0.5-0.1c-0.4-0.1-0.7-0.4-0.9-0.8C11,17.8,11,17.4,11.1,17
								c0.1-0.4,0.4-0.7,0.8-0.9c0.4-0.2,0.8-0.2,1.2-0.1c0.4,0.1,0.7,0.4,0.9,0.8c0.2,0.4,0.2,0.8,0.1,1.2s-0.4,0.7-0.8,0.9
								C13,19,12.8,19,12.5,19"/>
							<path id="Fill-21" class="st1" d="M20.1,11.9c0.6,0.2,1.3-0.1,1.5-0.7c0.2-0.6-0.1-1.3-0.7-1.5c-0.6-0.2-1.3,0.1-1.5,0.7
								c-0.1,0.3-0.1,0.6,0,0.9C19.6,11.5,19.8,11.8,20.1,11.9 M20.5,13.3c-0.3,0-0.6-0.1-0.9-0.2c-1.4-0.5-2.1-2-1.6-3.3
								c0.5-1.3,2-2,3.4-1.6c1.4,0.5,2.1,2,1.6,3.3C22.6,12.7,21.6,13.3,20.5,13.3"/>
							<path id="Fill-23" class="st1" d="M37.2,26.6c-0.2,0-0.4-0.1-0.6-0.2L22,12.1c-0.3-0.3-0.3-0.8,0-1.1c0.3-0.3,0.8-0.3,1.1,0
								l14.7,14.3c0.3,0.3,0.3,0.8,0,1.1C37.7,26.5,37.5,26.6,37.2,26.6"/>
							<path id="Fill-25" class="st1" d="M13.6,17.2c-0.2,0-0.4-0.1-0.6-0.2c-0.3-0.3-0.3-0.8,0-1.1l5.1-5c0.3-0.3,0.8-0.3,1.1,0
								c0.3,0.3,0.3,0.8,0,1.1l-5.1,5C14,17.1,13.8,17.2,13.6,17.2"/>
						</g>
						<g id="Group-7" transform="translate(48.000000, 7.000000)">
							<g id="Group-5">
								<path id="Fill-27" class="st1" d="M0.3,3V1.3h11.1c1.8,0.1,3.9-0.2,6.2-0.7v1.8c-2,0.5-3.8,0.7-5.7,0.6h-1.7v2.8H16
									c0.5,0,0.9,0.4,0.9,0.9v10h-4.4V15l1.8,0V7.5c0-0.3-0.2-0.5-0.5-0.5h-3.6V18H7.6V7h-4l0,9.7H1.1v-11h6.5V3H0.3z"/>
								<path id="Fill-29" class="st1" d="M22.2,4.4c-0.3-1.3-0.8-2.6-1.5-3.9H23c0.7,1.2,1.2,2.5,1.6,3.9H22.2z"/>
								<path id="Fill-31" class="st1" d="M23.2,5.3h-2.3c0.5,1.2,1.1,2.8,1.5,4c0.2,0.7,0.3,1.4,0.2,2.1c-0.3,2.3-1,4.5-2.1,6.5H23
									c0.9-2,1.5-4.3,1.8-7c0-0.5,0-1-0.1-1.4C24.3,8.1,23.8,6.4,23.2,5.3"/>
								<g id="Group" transform="translate(1.000000, 0.000000)">
									<g id="Group-35" transform="translate(24.666667, 0.928395)">
										<g id="Clip-34">
										</g>
										<defs>
											<filter id="Adobe_OpacityMaskFilter_2_" filterUnits="userSpaceOnUse" x="0.5" y="0.3" width="12.5" height="16.1">
												<feColorMatrix  type="matrix" values="1 0 0 0 0  0 1 0 0 0  0 0 1 0 0  0 0 0 1 0"/>
											</filter>
										</defs>
										<mask maskUnits="userSpaceOnUse" x="0.5" y="0.3" width="12.5" height="16.1" id="mask-6_1_">
											<g class="st5">
												<polygon id="path-5_1_" class="st1" points="0.5,0.3 13,0.3 13,16.4 0.5,16.4 												"/>
											</g>
										</mask>
										<path id="Fill-33" class="st6" d="M3.2,16.4l-2.7,0l0-15.1c0-0.5,0.4-0.9,0.9-0.9h11.1v1.3H3.6C3.4,1.6,3.2,1.8,3.2,2
											v13.1h1.4H13l0,1.2L3.2,16.4z"/>
									</g>
									<path id="Fill-36" class="st1" d="M12.7,28c-1.5,0-2.7-1.6-2.7-3.5s1.2-3.5,2.7-3.5s2.7,1.6,2.7,3.5S14.2,28,12.7,28
										 M12.7,20.2c-2.2,0-4,1.9-4,4.3c0,2.4,1.8,4.3,4,4.3s4-1.9,4-4.3C16.8,22.2,15,20.2,12.7,20.2"/>
									<path id="Fill-38" class="st1" d="M6.5,26.2C6.1,27.3,5.2,28,4.1,28c-1.5,0-2.7-1.6-2.7-3.5c0-1.9,1.2-3.5,2.7-3.5
										c1,0,2,0.8,2.4,1.9h1.3c-0.6-1.6-2-2.7-3.7-2.7c-2.2,0-4,1.9-4,4.3c0,2.4,1.8,4.3,4,4.3c1.7,0,3.1-1.1,3.7-2.7H6.5z"/>
									<path id="Fill-40" class="st1" d="M35.6,26.2c-0.5,1.1-1.4,1.9-2.4,1.9c-1.5,0-2.7-1.6-2.7-3.5c0-1.9,1.2-3.5,2.7-3.5
										c1,0,2,0.8,2.4,1.9h1.3c-0.6-1.6-2-2.7-3.7-2.7c-2.2,0-4,1.9-4,4.3c0,2.4,1.8,4.3,4,4.3c1.7,0,3.1-1.1,3.7-2.7H35.6z"/>
								</g>
							</g>
							<polygon id="Fill-42" class="st1" points="19,28.9 20.4,28.9 20.4,20.2 19,20.2 							"/>
							<polygon id="Fill-44" class="st1" points="21.8,28.9 23.1,28.9 23.1,20.2 21.8,20.2 							"/>
							<polygon id="Fill-45" class="st1" points="27.5,28.9 28.9,28.9 28.9,20.2 27.5,20.2 							"/>
							<polygon id="Fill-46" class="st1" points="28.6,28.9 27.5,28.9 22,20.2 23.1,20.2 							"/>
						</g>
					</g>
				</g>
			</g>
		</g>
	</g>
</g>
</svg>
