<?xml version="1.0" encoding="utf-8"?>
<!-- Generator: Adobe Illustrator 22.1.0, SVG Export Plug-In . SVG Version: 6.00 Build 0)  -->
<svg version="1.1" id="图层_1" xmlns="http://www.w3.org/2000/svg" xmlns:xlink="http://www.w3.org/1999/xlink" x="0px" y="0px"
	 viewBox="0 0 44 44" style="enable-background:new 0 0 44 44;" xml:space="preserve">
<style type="text/css">
	.st0{filter:url(#Adobe_OpacityMaskFilter);}
	.st1{fill:#FFFFFF;}
	.st2{mask:url(#mask-2_1_);fill:#FFFFFF;}
	.st3{filter:url(#Adobe_OpacityMaskFilter_1_);}
	.st4{mask:url(#mask-4_1_);fill:#FFFFFF;}
</style>
<title>logo</title>
<desc>Created with Sketch.</desc>
<g id="Page-1">
	<g id="币汇-重置登录密码" transform="translate(-938.000000, -176.000000)">
		<g id="弹窗" transform="translate(650.000000, 160.000000)">
			<g id="logo-copy-2" transform="translate(240.000000, 16.000000)">
				<g id="logo">
					<g transform="translate(48.000000, 0.000000)">
						<g id="Group-3" transform="translate(0.000000, 19.072432)">
							<g id="Clip-2">
							</g>
							<defs>
								<filter id="Adobe_OpacityMaskFilter" filterUnits="userSpaceOnUse" x="0" y="0.4" width="40" height="24.4">
									<feColorMatrix  type="matrix" values="1 0 0 0 0  0 1 0 0 0  0 0 1 0 0  0 0 0 1 0"/>
								</filter>
							</defs>
							<mask maskUnits="userSpaceOnUse" x="0" y="0.4" width="40" height="24.4" id="mask-2_1_">
								<g class="st0">
									<polygon id="path-1_1_" class="st1" points="0,0.4 40,0.4 40,24.8 0,24.8 									"/>
								</g>
							</mask>
							<path id="Fill-1" class="st2" d="M21.9,24.8c-2.5,0-5-0.4-7.4-1.3c-4.5-1.6-8.3-4.6-10.9-8.6C1,11-0.2,6.4,0,1.8
								C0.1,1,0.8,0.3,1.7,0.4C2.5,0.4,3.1,1.1,3.1,2c-0.2,3.9,0.8,7.9,3,11.3c2.3,3.4,5.5,6,9.4,7.4c7.9,2.8,16.8,0.1,21.8-6.6
								c0.5-0.7,1.4-0.8,2.1-0.3c0.7,0.5,0.8,1.4,0.3,2.1C35.5,21.6,28.8,24.8,21.9,24.8"/>
						</g>
						<g id="Group-6" transform="translate(3.583333, 0.359789)">
							<g id="Clip-5">
							</g>
							<defs>
								<filter id="Adobe_OpacityMaskFilter_1_" filterUnits="userSpaceOnUse" x="0.3" y="0.1" width="40" height="24.6">
									<feColorMatrix  type="matrix" values="1 0 0 0 0  0 1 0 0 0  0 0 1 0 0  0 0 0 1 0"/>
								</filter>
							</defs>
							<mask maskUnits="userSpaceOnUse" x="0.3" y="0.1" width="40" height="24.6" id="mask-4_1_">
								<g class="st3">
									<polygon id="path-3_1_" class="st1" points="0.3,0.1 40.3,0.1 40.3,24.7 0.3,24.7 									"/>
								</g>
							</mask>
							<path id="Fill-4" class="st4" d="M38.8,24.7c0,0-0.1,0-0.1,0c-0.8-0.1-1.5-0.8-1.4-1.6c0.6-8.3-4.5-16-12.4-18.8
								C16.9,1.4,8,4.1,3.1,10.8c-0.5,0.7-1.4,0.8-2.1,0.3c-0.7-0.5-0.8-1.4-0.3-2.1C6.3,1.3,16.7-1.8,25.9,1.4
								C35,4.7,40.9,13.7,40.3,23.3C40.2,24.1,39.6,24.7,38.8,24.7"/>
						</g>
						<path id="Fill-7" class="st1" d="M2.8,14.6c-0.3,0-0.7,0.2-0.8,0.6c-0.1,0.2-0.1,0.4,0,0.6c0.1,0.2,0.3,0.4,0.5,0.4
							c0.2,0.1,0.4,0.1,0.7,0c0.2-0.1,0.4-0.3,0.4-0.5c0.2-0.4-0.1-0.9-0.5-1.1C2.9,14.6,2.8,14.6,2.8,14.6 M2.7,17.5
							c-0.2,0-0.5,0-0.7-0.1c-1.1-0.4-1.7-1.6-1.3-2.7c0.4-1.1,1.6-1.7,2.8-1.3c1.1,0.4,1.7,1.6,1.3,2.7C4.5,17,3.6,17.5,2.7,17.5"
							/>
						<path id="Fill-9" class="st1" d="M30.5,25c-0.2,0-0.4,0.1-0.5,0.4c-0.1,0.3,0,0.6,0.3,0.7c0.3,0.1,0.6,0,0.7-0.3
							c0.1-0.3,0-0.6-0.3-0.7C30.7,25,30.6,25,30.5,25 M30.5,27.1c-0.2,0-0.4,0-0.6-0.1c-0.8-0.3-1.3-1.2-1-2.1
							c0.3-0.8,1.2-1.3,2.1-1c0.8,0.3,1.3,1.2,1,2.1C31.8,26.7,31.2,27.1,30.5,27.1"/>
						<path id="Fill-11" class="st1" d="M22,31.4c-0.2,0-0.4,0-0.5,0.1c-0.3,0.1-0.5,0.4-0.7,0.7c-0.1,0.3-0.1,0.7,0,1
							c0.1,0.3,0.4,0.5,0.7,0.7c0.3,0.1,0.7,0.1,1,0c0.3-0.1,0.5-0.4,0.7-0.7c0.1-0.3,0.1-0.7,0-1c-0.1-0.3-0.4-0.5-0.7-0.7
							C22.3,31.5,22.1,31.4,22,31.4 M22,35.5c-0.3,0-0.6-0.1-1-0.2c-1.5-0.5-2.2-2.1-1.7-3.6c0.5-1.4,2.1-2.2,3.6-1.7
							c0.7,0.3,1.3,0.8,1.6,1.4c0.3,0.7,0.4,1.4,0.1,2.1C24.2,34.8,23.1,35.5,22,35.5"/>
						<path id="Fill-13" class="st1" d="M19.8,32.8c-0.2,0-0.4-0.1-0.6-0.2L3.5,17.2c-0.3-0.3-0.3-0.9,0-1.2c0.3-0.3,0.9-0.3,1.2,0
							l15.7,15.3c0.3,0.3,0.3,0.9,0,1.2C20.2,32.7,20,32.8,19.8,32.8"/>
						<path id="Fill-15" class="st1" d="M24,32.8c-0.2,0-0.4-0.1-0.6-0.3c-0.3-0.3-0.3-0.9,0-1.2l5.4-5.3c0.3-0.3,0.9-0.3,1.2,0
							c0.3,0.3,0.3,0.9,0,1.2l-5.4,5.3C24.4,32.8,24.2,32.8,24,32.8"/>
						<path id="Fill-17" class="st1" d="M40.9,29.6c0.2,0.1,0.4,0.1,0.7,0c0.2-0.1,0.4-0.3,0.4-0.5c0.2-0.4-0.1-0.9-0.5-1.1
							c-0.4-0.2-0.9,0.1-1.1,0.5C40.3,29,40.5,29.5,40.9,29.6 M41.2,31c-0.2,0-0.5,0-0.7-0.1c-1.1-0.4-1.7-1.6-1.3-2.7
							c0.4-1.1,1.6-1.7,2.8-1.3c1.1,0.4,1.7,1.6,1.3,2.7c-0.2,0.5-0.6,1-1.1,1.2C41.8,30.9,41.5,31,41.2,31"/>
						<path id="Fill-19" class="st1" d="M13.4,18.2c-0.1,0-0.2,0-0.2,0.1c-0.1,0.1-0.2,0.2-0.3,0.3c-0.1,0.1,0,0.3,0,0.4
							c0.1,0.1,0.2,0.2,0.3,0.3h0c0.1,0,0.3,0,0.4,0c0.1-0.1,0.2-0.2,0.3-0.3c0-0.1,0-0.3,0-0.4c-0.1-0.1-0.2-0.2-0.3-0.3
							C13.6,18.2,13.5,18.2,13.4,18.2 M13.4,20.4c-0.2,0-0.4,0-0.6-0.1c-0.4-0.1-0.7-0.4-0.9-0.8c-0.2-0.4-0.2-0.8-0.1-1.2
							c0.1-0.4,0.4-0.7,0.8-0.9c0.4-0.2,0.8-0.2,1.3-0.1c0.4,0.1,0.7,0.4,0.9,0.8c0.2,0.4,0.2,0.8,0.1,1.2c-0.1,0.4-0.4,0.7-0.8,0.9
							C13.9,20.3,13.7,20.4,13.4,20.4"/>
						<path id="Fill-21" class="st1" d="M21.6,12.7c0.7,0.2,1.4-0.1,1.7-0.8c0.2-0.7-0.1-1.4-0.8-1.6c-0.7-0.2-1.4,0.1-1.7,0.8
							c-0.1,0.3-0.1,0.7,0,1C21,12.4,21.3,12.6,21.6,12.7 M22,14.3c-0.3,0-0.6-0.1-1-0.2c-1.5-0.5-2.2-2.1-1.7-3.6
							c0.5-1.4,2.1-2.2,3.6-1.7c1.5,0.5,2.2,2.1,1.7,3.6C24.2,13.6,23.2,14.3,22,14.3"/>
						<path id="Fill-23" class="st1" d="M39.9,28.5c-0.2,0-0.4-0.1-0.6-0.2L23.6,12.9c-0.3-0.3-0.3-0.9,0-1.2c0.3-0.3,0.9-0.3,1.2,0
							L40.5,27c0.3,0.3,0.3,0.9,0,1.2C40.4,28.4,40.1,28.5,39.9,28.5"/>
						<path id="Fill-25" class="st1" d="M14.5,18.4c-0.2,0-0.4-0.1-0.6-0.3c-0.3-0.3-0.3-0.9,0-1.2l5.4-5.3c0.3-0.3,0.9-0.3,1.2,0
							c0.3,0.3,0.3,0.9,0,1.2l-5.4,5.3C15,18.4,14.7,18.4,14.5,18.4"/>
					</g>
				</g>
			</g>
		</g>
	</g>
</g>
</svg>
