<?xml version="1.0" encoding="utf-8"?>
<!-- Generator: Adobe Illustrator 22.1.0, SVG Export Plug-In . SVG Version: 6.00 Build 0)  -->
<svg version="1.1" id="图层_1" xmlns="http://www.w3.org/2000/svg" xmlns:xlink="http://www.w3.org/1999/xlink" x="0px" y="0px"
	 viewBox="0 0 39 36" style="enable-background:new 0 0 39 36;" xml:space="preserve">
<style type="text/css">
	.st0{filter:url(#Adobe_OpacityMaskFilter);}
	.st1{fill:#FFFFFF;}
	.st2{mask:url(#mask-2_1_);fill:#0BB2FE;}
	.st3{filter:url(#Adobe_OpacityMaskFilter_1_);}
	.st4{mask:url(#mask-4_1_);fill:#0BB2FE;}
	.st5{fill:#0BB2FE;}
</style>
<title>logo</title>
<desc>Created with Sketch.</desc>
<g id="Page-1">
	<g id="场外交易-常见问题" transform="translate(-396.000000, -258.000000)">
		<g id="logo" transform="translate(396.000000, 252.000000)">
			<g id="logo-" transform="translate(0.000000, 6.000000)">
				<g id="logo-copy">
					<g id="Group-8">
						<g id="Group-3" transform="translate(0.000000, 13.562618)">
							<g id="Clip-2">
							</g>
							<defs>
								<filter id="Adobe_OpacityMaskFilter" filterUnits="userSpaceOnUse" x="0" y="0.3" width="28.2" height="17.4">
									<feColorMatrix  type="matrix" values="1 0 0 0 0  0 1 0 0 0  0 0 1 0 0  0 0 0 1 0"/>
								</filter>
							</defs>
							<mask maskUnits="userSpaceOnUse" x="0" y="0.3" width="28.2" height="17.4" id="mask-2_1_">
								<g class="st0">
									<polygon id="path-1_1_" class="st1" points="0,0.3 28.2,0.3 28.2,17.6 0,17.6 									"/>
								</g>
							</mask>
							<path id="Fill-1" class="st2" d="M15.4,17.6c-1.8,0-3.5-0.3-5.2-0.9c-3.2-1.2-5.9-3.3-7.7-6.1C0.7,7.8-0.2,4.5,0,1.3
								c0-0.6,0.5-1,1.1-1c0.6,0,1,0.5,1,1.1C2,4.2,2.7,7.1,4.3,9.4c1.6,2.4,3.9,4.3,6.6,5.3c5.6,2,11.9,0.1,15.3-4.7
								c0.3-0.5,1-0.6,1.5-0.2c0.5,0.3,0.6,1,0.2,1.5C25,15.3,20.3,17.6,15.4,17.6"/>
						</g>
						<g id="Group-6" transform="translate(2.525874, 0.255850)">
							<g id="Clip-5">
							</g>
							<defs>
								<filter id="Adobe_OpacityMaskFilter_1_" filterUnits="userSpaceOnUse" x="0.2" y="0.1" width="28.2" height="17.5">
									<feColorMatrix  type="matrix" values="1 0 0 0 0  0 1 0 0 0  0 0 1 0 0  0 0 0 1 0"/>
								</filter>
							</defs>
							<mask maskUnits="userSpaceOnUse" x="0.2" y="0.1" width="28.2" height="17.5" id="mask-4_1_">
								<g class="st3">
									<polygon id="path-3_1_" class="st1" points="0.2,0.1 28.4,0.1 28.4,17.6 0.2,17.6 									"/>
								</g>
							</mask>
							<path id="Fill-4" class="st4" d="M27.3,17.6C27.3,17.6,27.3,17.6,27.3,17.6c-0.7,0-1.1-0.6-1.1-1.1C26.7,10.5,23.1,5,17.5,3
								C11.9,1,5.6,2.9,2.2,7.7c-0.3,0.5-1,0.6-1.5,0.2c-0.5-0.3-0.6-1-0.2-1.5c4-5.5,11.3-7.8,17.8-5.4c6.5,2.3,10.6,8.7,10.2,15.5
								C28.4,17.1,27.9,17.6,27.3,17.6"/>
						</g>
						<path id="Fill-7" class="st5" d="M1.9,10.4c-0.2,0-0.5,0.2-0.6,0.4c-0.1,0.2,0,0.3,0,0.5c0.1,0.1,0.2,0.3,0.3,0.3
							c0.2,0.1,0.3,0,0.5,0c0.1-0.1,0.3-0.2,0.3-0.3c0.1-0.3,0-0.7-0.4-0.8C2.1,10.4,2,10.4,1.9,10.4 M1.9,12.5
							c-0.2,0-0.3,0-0.5-0.1c-0.8-0.3-1.2-1.2-0.9-1.9c0.3-0.8,1.2-1.2,1.9-0.9c0.8,0.3,1.2,1.2,0.9,1.9C3.1,12.1,2.6,12.5,1.9,12.5
							"/>
						<path id="Fill-9" class="st5" d="M21.5,17.7c-0.2,0-0.3,0.1-0.4,0.3c-0.1,0.2,0,0.4,0.2,0.5c0.2,0.1,0.4,0,0.5-0.2
							c0.1-0.2,0-0.4-0.2-0.5C21.6,17.8,21.6,17.7,21.5,17.7 M21.5,19.3c-0.1,0-0.3,0-0.4-0.1c-0.6-0.2-0.9-0.9-0.7-1.5
							c0.2-0.6,0.9-0.9,1.5-0.7c0.6,0.2,0.9,0.9,0.7,1.5C22.4,19,22,19.3,21.5,19.3"/>
						<path id="Fill-11" class="st5" d="M15.5,22.4c-0.1,0-0.3,0-0.4,0.1c-0.2,0.1-0.4,0.3-0.5,0.5c-0.1,0.2-0.1,0.5,0,0.7
							c0.1,0.2,0.3,0.4,0.5,0.5c0.2,0.1,0.5,0.1,0.7,0c0.2-0.1,0.4-0.3,0.5-0.5c0.1-0.2,0.1-0.5,0-0.7c-0.1-0.2-0.3-0.4-0.5-0.5
							C15.7,22.4,15.6,22.4,15.5,22.4 M15.5,25.2c-0.2,0-0.5,0-0.7-0.1c-1-0.4-1.6-1.5-1.2-2.5c0.4-1,1.5-1.6,2.5-1.2
							c0.5,0.2,0.9,0.5,1.1,1c0.2,0.5,0.2,1,0.1,1.5C17,24.7,16.3,25.2,15.5,25.2"/>
						<path id="Fill-13" class="st5" d="M13.9,23.3c-0.2,0-0.3-0.1-0.4-0.2L2.4,12.3c-0.2-0.2-0.2-0.6,0-0.9c0.2-0.2,0.6-0.2,0.9,0
							l11.1,10.9c0.2,0.2,0.2,0.6,0,0.9C14.3,23.2,14.1,23.3,13.9,23.3"/>
						<path id="Fill-15" class="st5" d="M16.9,23.4c-0.2,0-0.3-0.1-0.4-0.2c-0.2-0.2-0.2-0.6,0-0.9l3.8-3.8c0.2-0.2,0.6-0.2,0.9,0
							c0.2,0.2,0.2,0.6,0,0.9l-3.8,3.8C17.2,23.3,17.1,23.4,16.9,23.4"/>
						<path id="Fill-17" class="st5" d="M28.9,21.1c0.2,0.1,0.3,0,0.5,0c0.1-0.1,0.3-0.2,0.3-0.3c0.1-0.3,0-0.7-0.4-0.8
							c-0.3-0.1-0.7,0-0.8,0.4C28.4,20.6,28.5,21,28.9,21.1 M29.1,22c-0.2,0-0.4,0-0.5-0.1c-0.8-0.3-1.2-1.2-0.9-1.9
							c0.3-0.8,1.2-1.2,1.9-0.9c0.8,0.3,1.2,1.2,0.9,1.9c-0.1,0.4-0.4,0.7-0.8,0.9C29.5,22,29.3,22,29.1,22"/>
						<path id="Fill-19" class="st5" d="M9.5,12.9c-0.1,0-0.1,0-0.2,0c-0.1,0-0.2,0.1-0.2,0.2c0,0.1,0,0.2,0,0.3
							c0,0.1,0.1,0.2,0.2,0.2h0c0.1,0,0.2,0,0.3,0c0.1,0,0.2-0.1,0.2-0.2c0-0.1,0-0.2,0-0.3c0-0.1-0.1-0.2-0.2-0.2
							C9.6,13,9.5,12.9,9.5,12.9 M9.5,14.5c-0.1,0-0.3,0-0.4-0.1c-0.3-0.1-0.5-0.3-0.7-0.6c-0.1-0.3-0.1-0.6,0-0.9
							c0.1-0.3,0.3-0.5,0.6-0.6c0.3-0.1,0.6-0.1,0.9,0c0.3,0.1,0.5,0.3,0.7,0.6c0.1,0.3,0.1,0.6,0,0.9s-0.3,0.5-0.6,0.6
							C9.8,14.4,9.6,14.5,9.5,14.5"/>
						<path id="Fill-21" class="st5" d="M15.2,9c0.5,0.2,1-0.1,1.2-0.5c0.2-0.5-0.1-1-0.5-1.2c-0.5-0.2-1,0.1-1.2,0.5
							c-0.1,0.2-0.1,0.5,0,0.7C14.8,8.8,15,9,15.2,9 M15.5,10.2c-0.2,0-0.5,0-0.7-0.1c-1-0.4-1.6-1.5-1.2-2.5c0.4-1,1.5-1.6,2.5-1.2
							c1,0.4,1.6,1.5,1.2,2.5C17.1,9.7,16.3,10.2,15.5,10.2"/>
						<path id="Fill-23" class="st5" d="M28.1,20.2c-0.2,0-0.3-0.1-0.4-0.2L16.6,9.2c-0.2-0.2-0.2-0.6,0-0.9c0.2-0.2,0.6-0.2,0.9,0
							l11.1,10.9c0.2,0.2,0.2,0.6,0,0.9C28.4,20.2,28.3,20.2,28.1,20.2"/>
						<path id="Fill-25" class="st5" d="M10.2,13.1c-0.2,0-0.3-0.1-0.4-0.2c-0.2-0.2-0.2-0.6,0-0.9l3.8-3.8c0.2-0.2,0.6-0.2,0.9,0
							c0.2,0.2,0.2,0.6,0,0.9l-3.8,3.8C10.5,13.1,10.4,13.1,10.2,13.1"/>
					</g>
				</g>
				<g id="用户" transform="translate(28.000000, 25.000000)">
					<g id="Group-3_1_">
						<path id="Fill-1-Copy-2" class="st5" d="M0,5.5c0,3,2.5,5.5,5.5,5.5c3,0,5.5-2.5,5.5-5.5C11,2.5,8.5,0,5.5,0
							C2.5,0,0,2.5,0,5.5z"/>
					</g>
					<path id="Fill-5" class="st1" d="M7.5,7.8c-0.7-0.3-0.9-0.7-1-1.1c0.5-0.4,0.8-1,1.1-1.6C7.8,4.8,8,4.5,8,4.3
						C8,4.1,7.9,4,7.8,3.9c0-1.4-1-2.5-2.2-2.5c0,0,0,0,0,0c0,0,0,0,0,0c-1.2,0-2.2,1.1-2.3,2.5C3.1,3.9,3,4.1,3,4.3
						c0,0.3,0.2,0.6,0.5,0.9C3.7,5.8,4,6.3,4.4,6.7C4.4,7,4.1,7.5,3.5,7.8C3.1,8,2.4,8.1,2.1,8.3c0.7,0.8,2.2,1.3,3.4,1.3l0,0
						c0,0,0,0,0,0c1.2,0,2.6-0.5,3.4-1.3C8.6,8.1,7.9,8,7.5,7.8z"/>
				</g>
			</g>
		</g>
	</g>
</g>
</svg>
