<?xml version="1.0" encoding="utf-8"?>
<!-- Generator: Adobe Illustrator 22.1.0, SVG Export Plug-In . SVG Version: 6.00 Build 0)  -->
<svg version="1.1" id="图层_1" xmlns="http://www.w3.org/2000/svg" xmlns:xlink="http://www.w3.org/1999/xlink" x="0px" y="0px"
	 viewBox="0 0 113 54" style="enable-background:new 0 0 113 54;" xml:space="preserve">
<style type="text/css">
	.st0{filter:url(#Adobe_OpacityMaskFilter);}
	.st1{fill:#FFFFFF;}
	.st2{mask:url(#mask-2_1_);fill:#0BB2FE;}
	.st3{filter:url(#Adobe_OpacityMaskFilter_1_);}
	.st4{mask:url(#mask-4_1_);fill:#0BB2FE;}
	.st5{fill:#0BB2FE;}
	.st6{filter:url(#Adobe_OpacityMaskFilter_2_);}
	.st7{mask:url(#mask-6_1_);fill:#0BB2FE;}
</style>
<g id="Page-1">
	<g id="首页" transform="translate(-401.000000, -1846.000000)">
		<g id="底部" transform="translate(0.000000, 1781.000000)">
			<g id="内容" transform="translate(361.000000, 43.000000)">
				<g id="logo-蓝色" transform="translate(40.000000, 22.000000)">
					<g id="Group-8">
						<g id="Group-3" transform="translate(0.000000, 23.310750)">
							<defs>
								<filter id="Adobe_OpacityMaskFilter" filterUnits="userSpaceOnUse" x="0" y="0.5" width="48.4" height="29.8">
									<feColorMatrix  type="matrix" values="1 0 0 0 0  0 1 0 0 0  0 0 1 0 0  0 0 0 1 0"/>
								</filter>
							</defs>
							<mask maskUnits="userSpaceOnUse" x="0" y="0.5" width="48.4" height="29.8" id="mask-2_1_">
								<g class="st0">
									<polygon id="path-1_1_" class="st1" points="0,0.5 48.4,0.5 48.4,30.3 0,30.3 									"/>
								</g>
							</mask>
							<path id="Fill-1" class="st2" d="M26.5,30.3c-3,0-6.1-0.5-9-1.6c-5.5-2-10.1-5.6-13.2-10.5C1.2,13.5-0.3,7.8,0,2.2
								C0.1,1.2,1,0.4,2,0.5c1,0.1,1.8,0.9,1.7,1.9c-0.3,4.8,1,9.7,3.6,13.8c2.7,4.2,6.7,7.3,11.4,9.1c9.5,3.5,20.4,0.2,26.3-8
								c0.6-0.8,1.7-1,2.6-0.4c0.8,0.6,1,1.7,0.4,2.6C42.9,26.4,34.8,30.3,26.5,30.3"/>
						</g>
						<g id="Group-6" transform="translate(4.332576, 0.439742)">
							<defs>
								<filter id="Adobe_OpacityMaskFilter_1_" filterUnits="userSpaceOnUse" x="0.4" y="0.2" width="48.4" height="30">
									<feColorMatrix  type="matrix" values="1 0 0 0 0  0 1 0 0 0  0 0 1 0 0  0 0 0 1 0"/>
								</filter>
							</defs>
							<mask maskUnits="userSpaceOnUse" x="0.4" y="0.2" width="48.4" height="30" id="mask-4_1_">
								<g class="st3">
									<polygon id="path-3_1_" class="st1" points="0.4,0.2 48.8,0.2 48.8,30.2 0.4,30.2 									"/>
								</g>
							</mask>
							<path id="Fill-4" class="st4" d="M46.9,30.2c0,0-0.1,0-0.1,0c-1-0.1-1.8-0.9-1.7-2c0.7-10.1-5.5-19.6-15-23
								c-9.5-3.5-20.4-0.2-26.3,8c-0.6,0.8-1.7,1-2.6,0.4c-0.8-0.6-1-1.7-0.4-2.6C7.6,1.6,20.2-2.3,31.3,1.8
								c11.1,4,18.2,15,17.4,26.7C48.6,29.4,47.8,30.2,46.9,30.2"/>
						</g>
						<path id="Fill-7" class="st5" d="M3.3,17.8c-0.4,0-0.8,0.3-1,0.7c-0.1,0.3-0.1,0.5,0,0.8c0.1,0.2,0.3,0.4,0.6,0.5
							c0.3,0.1,0.5,0.1,0.8,0s0.4-0.3,0.5-0.6c0.2-0.5-0.1-1.1-0.6-1.3C3.6,17.8,3.4,17.8,3.3,17.8 M3.3,21.4
							c-0.3,0-0.6-0.1-0.9-0.2c-1.4-0.5-2.1-2-1.6-3.3c0.5-1.3,2-2,3.3-1.6c1.4,0.5,2.1,2,1.6,3.3C5.4,20.8,4.4,21.4,3.3,21.4"/>
						<path id="Fill-9" class="st5" d="M36.9,30.5c-0.3,0-0.5,0.2-0.6,0.4c-0.1,0.3,0.1,0.7,0.4,0.8c0.3,0.1,0.7-0.1,0.9-0.4
							c0.1-0.3-0.1-0.7-0.4-0.8C37.1,30.5,37,30.5,36.9,30.5 M36.9,33.1c-0.2,0-0.5,0-0.7-0.1c-1-0.4-1.6-1.5-1.2-2.5
							c0.4-1,1.5-1.6,2.5-1.2c1,0.4,1.6,1.5,1.2,2.5C38.5,32.6,37.7,33.1,36.9,33.1"/>
						<path id="Fill-11" class="st5" d="M26.5,38.4c-0.2,0-0.4,0-0.7,0.1c-0.4,0.2-0.7,0.5-0.8,0.9c-0.1,0.4-0.1,0.8,0.1,1.2
							c0.2,0.4,0.5,0.7,0.9,0.8c0.4,0.1,0.8,0.1,1.2-0.1c0.4-0.2,0.7-0.5,0.8-0.9c0.1-0.4,0.1-0.8-0.1-1.2c-0.2-0.4-0.5-0.7-0.9-0.8
							C26.9,38.5,26.7,38.4,26.5,38.4 M26.5,43.4c-0.4,0-0.8-0.1-1.2-0.2c-1.8-0.6-2.7-2.6-2-4.3c0.6-1.8,2.6-2.7,4.4-2
							c0.9,0.3,1.5,0.9,1.9,1.8c0.4,0.8,0.4,1.7,0.1,2.6C29.2,42.5,27.9,43.4,26.5,43.4"/>
						<path id="Fill-13" class="st5" d="M23.9,40.1c-0.3,0-0.5-0.1-0.7-0.3l-19-18.7c-0.4-0.4-0.4-1.1,0-1.5c0.4-0.4,1.1-0.4,1.5,0
							l19,18.7c0.4,0.4,0.4,1.1,0,1.5C24.5,39.9,24.2,40.1,23.9,40.1"/>
						<path id="Fill-15" class="st5" d="M29,40.1c-0.3,0-0.5-0.1-0.7-0.3c-0.4-0.4-0.4-1.1,0-1.5l6.6-6.5c0.4-0.4,1.1-0.4,1.5,0
							c0.4,0.4,0.4,1.1,0,1.5l-6.6,6.5C29.6,40,29.3,40.1,29,40.1"/>
						<path id="Fill-17" class="st5" d="M49.5,36.2c0.3,0.1,0.5,0.1,0.8,0c0.3-0.1,0.4-0.3,0.5-0.6c0.2-0.5-0.1-1.1-0.6-1.3
							c-0.5-0.2-1.1,0.1-1.3,0.6S49,36,49.5,36.2 M49.8,37.8c-0.3,0-0.6-0.1-0.9-0.2c-1.4-0.5-2.1-2-1.6-3.3c0.5-1.3,2-2,3.3-1.6
							c1.4,0.5,2.1,2,1.6,3.3c-0.2,0.7-0.7,1.2-1.3,1.5C50.6,37.8,50.2,37.8,49.8,37.8"/>
						<path id="Fill-19" class="st5" d="M16.2,22.3c-0.1,0-0.2,0-0.3,0.1c-0.2,0.1-0.3,0.2-0.3,0.4c-0.1,0.2-0.1,0.3,0,0.5
							c0.1,0.2,0.2,0.3,0.4,0.3h0c0.2,0.1,0.3,0.1,0.5,0c0.2-0.1,0.3-0.2,0.3-0.4c0.1-0.2,0.1-0.3,0-0.5c-0.1-0.2-0.2-0.3-0.4-0.3
							C16.4,22.3,16.3,22.3,16.2,22.3 M16.2,24.9c-0.2,0-0.5,0-0.7-0.1c-0.5-0.2-0.9-0.5-1.1-1c-0.2-0.5-0.2-1-0.1-1.5
							c0.2-0.5,0.5-0.9,1-1.1c0.5-0.2,1-0.2,1.5-0.1c0.5,0.2,0.9,0.5,1.1,1c0.2,0.5,0.2,1,0.1,1.5s-0.5,0.9-1,1.1
							C16.8,24.8,16.5,24.9,16.2,24.9"/>
						<path id="Fill-21" class="st5" d="M26.1,15.5c0.8,0.3,1.7-0.1,2-0.9c0.3-0.8-0.1-1.7-0.9-2c-0.8-0.3-1.7,0.1-2,0.9
							c-0.1,0.4-0.1,0.8,0.1,1.2C25.4,15.1,25.7,15.4,26.1,15.5 M26.6,17.5c-0.4,0-0.8-0.1-1.2-0.2c-1.8-0.6-2.7-2.6-2-4.3
							c0.6-1.8,2.6-2.7,4.4-2c1.8,0.6,2.7,2.6,2,4.3C29.3,16.6,28,17.5,26.6,17.5"/>
						<path id="Fill-23" class="st5" d="M48.2,34.8c-0.3,0-0.5-0.1-0.7-0.3l-19-18.7c-0.4-0.4-0.4-1.1,0-1.5c0.4-0.4,1.1-0.4,1.5,0
							L49,33c0.4,0.4,0.4,1.1,0,1.5C48.8,34.7,48.5,34.8,48.2,34.8"/>
						<path id="Fill-25" class="st5" d="M17.6,22.5c-0.3,0-0.5-0.1-0.7-0.3c-0.4-0.4-0.4-1.1,0-1.5l6.6-6.5c0.4-0.4,1.1-0.4,1.5,0
							c0.4,0.4,0.4,1.1,0,1.5l-6.6,6.5C18.1,22.4,17.8,22.5,17.6,22.5"/>
					</g>
					<g id="Group-7" transform="translate(62.181818, 9.166667)">
						<g id="Group-5">
							<path id="Fill-27" class="st5" d="M0.5,4V1.7h14.3c2.3,0.1,5-0.2,8-0.9v2.4c-2.5,0.6-5,0.9-7.3,0.8h-2.2v3.6h7.3
								c0.7,0,1.2,0.5,1.2,1.2v13.1h-5.7v-2.3l2.4,0V9.8c0-0.3-0.3-0.6-0.6-0.6h-4.6v14.3H9.8V9.2H4.7l0,12.7H1.4V7.6h8.5V4H0.5z"/>
							<path id="Fill-29" class="st5" d="M28.8,5.8c-0.3-1.7-1-3.4-2-5.2h3c0.9,1.6,1.6,3.3,2.1,5.2H28.8z"/>
							<path id="Fill-31" class="st5" d="M30,7h-3c0.7,1.5,1.4,3.6,1.9,5.2c0.3,0.9,0.3,1.8,0.2,2.8c-0.4,3-1.3,5.8-2.7,8.6h3.3
								c1.2-2.6,2-5.6,2.3-9.1c0.1-0.6,0-1.3-0.1-1.9C31.5,10.6,30.8,8.4,30,7"/>
							<g id="Group" transform="translate(1.295455, 0.000000)">
								<g id="Group-35" transform="translate(31.954545, 1.215756)">
									<defs>
										<filter id="Adobe_OpacityMaskFilter_2_" filterUnits="userSpaceOnUse" x="0.6" y="0.4" width="16.2" height="21.1">
											<feColorMatrix  type="matrix" values="1 0 0 0 0  0 1 0 0 0  0 0 1 0 0  0 0 0 1 0"/>
										</filter>
									</defs>
									<mask maskUnits="userSpaceOnUse" x="0.6" y="0.4" width="16.2" height="21.1" id="mask-6_1_">
										<g class="st6">
											<polygon id="path-5_1_" class="st1" points="0.6,0.4 16.8,0.4 16.8,21.5 0.6,21.5 											"/>
										</g>
									</mask>
									<path id="Fill-33" class="st7" d="M4.1,21.5l-3.5,0l0-19.8c0-0.7,0.5-1.2,1.2-1.2h14.4V2H4.7C4.4,2,4.1,2.3,4.1,2.7v17.2
										h1.8h10.9l0,1.6L4.1,21.5z"/>
								</g>
								<path id="Fill-36" class="st5" d="M16.5,36.7c-1.9,0-3.5-2-3.5-4.6s1.6-4.6,3.5-4.6s3.5,2,3.5,4.6S18.5,36.7,16.5,36.7
									 M16.5,26.5c-2.9,0-5.2,2.5-5.2,5.7c0,3.1,2.3,5.7,5.2,5.7s5.2-2.5,5.2-5.7C21.7,29,19.4,26.5,16.5,26.5"/>
								<path id="Fill-38" class="st5" d="M8.5,34.3c-0.6,1.5-1.8,2.5-3.1,2.5c-1.9,0-3.5-2-3.5-4.6c0-2.5,1.6-4.6,3.5-4.6
									c1.4,0,2.5,1,3.1,2.5h1.7c-0.8-2.1-2.6-3.6-4.8-3.6c-2.9,0-5.2,2.5-5.2,5.7c0,3.1,2.3,5.7,5.2,5.7c2.2,0,4.1-1.5,4.8-3.6
									H8.5z"/>
								<path id="Fill-40" class="st5" d="M46.1,34.2c-0.6,1.5-1.8,2.5-3.1,2.5c-1.9,0-3.5-2-3.5-4.6c0-2.5,1.6-4.6,3.5-4.6
									c1.4,0,2.5,1,3.1,2.5h1.7c-0.8-2.1-2.6-3.6-4.8-3.6c-2.9,0-5.2,2.5-5.2,5.7c0,3.1,2.3,5.7,5.2,5.7c2.2,0,4.1-1.5,4.8-3.6
									H46.1z"/>
							</g>
						</g>
						<polygon id="Fill-42" class="st5" points="24.7,37.8 26.4,37.8 26.4,26.5 24.7,26.5 						"/>
						<polygon id="Fill-44" class="st5" points="28.2,37.8 29.9,37.8 29.9,26.5 28.2,26.5 						"/>
						<polygon id="Fill-45" class="st5" points="35.7,37.8 37.4,37.8 37.4,26.5 35.7,26.5 						"/>
						<polygon id="Fill-46" class="st5" points="37.1,37.8 35.7,37.8 28.5,26.5 29.9,26.5 						"/>
					</g>
				</g>
			</g>
		</g>
	</g>
</g>
</svg>
