<?xml version="1.0" encoding="utf-8"?>
<!-- Generator: Adobe Illustrator 22.1.0, SVG Export Plug-In . SVG Version: 6.00 Build 0)  -->
<svg version="1.1" id="图层_1" xmlns="http://www.w3.org/2000/svg" xmlns:xlink="http://www.w3.org/1999/xlink" x="0px" y="0px"
	 viewBox="0 0 15 17" style="enable-background:new 0 0 15 17;" xml:space="preserve">
<style type="text/css">
	.st0{fill:#666666;}
</style>
<title>名单管理-灰</title>
<desc>Created with Sketch.</desc>
<g id="Page-1">
	<g id="名单管理" transform="translate(-127.000000, -260.000000)">
		<g id="标题" transform="translate(118.000000, 101.000000)">
			<g id="_x35_" transform="translate(9.000000, 158.000000)">
				<g id="名单管理-灰" transform="translate(0.000000, 1.000000)">
					<path id="Fill-1" class="st0" d="M10.2,15.5c-0.9,0.2-2,0.3-3,0.3c-3.5,0-6.1-1.2-6.1-2.2c0-0.8,1.7-1.8,4.5-2.1
						c0.3,0,0.5-0.3,0.5-0.6V10c0-0.2-0.1-0.4-0.3-0.5c-1.2-0.8-2-1.5-2-3.1c0-3.9,1.9-4.4,3.3-4.4s3.3,0.5,3.3,4.4
						c0,1.6-0.8,2.3-2,3.1C8.4,9.6,8.3,9.8,8.3,10v0.9c0,0.3,0.3,0.6,0.6,0.6c0.3,0,0.6-0.3,0.6-0.6v-0.6c1.4-1,2.2-1.9,2.2-3.9
						c0-4.5-2.4-5.5-4.5-5.5c-2,0-4.5,1-4.5,5.5c0,1.9,0.9,2.8,2.2,3.9v0.1c-3,0.4-5,1.7-5,3.2C0,15.5,3.1,17,7.2,17
						c1.1,0,2.3-0.1,3.3-0.3c0.3-0.1,0.5-0.4,0.4-0.7C10.8,15.7,10.5,15.5,10.2,15.5z"/>
					<path id="Fill-2" class="st0" d="M14.4,12.5h-1.8v-1.8c0-0.3-0.3-0.6-0.6-0.6c-0.3,0-0.6,0.3-0.6,0.6v1.8H9.6
						c-0.3,0-0.6,0.3-0.6,0.6c0,0.3,0.3,0.6,0.6,0.6h1.8v1.8c0,0.3,0.3,0.6,0.6,0.6c0.3,0,0.6-0.3,0.6-0.6v-1.8h1.8
						c0.3,0,0.6-0.3,0.6-0.6C15,12.8,14.7,12.5,14.4,12.5z"/>
				</g>
			</g>
		</g>
	</g>
</g>
</svg>
