<?xml version="1.0" encoding="utf-8"?>
<!-- Generator: Adobe Illustrator 22.1.0, SVG Export Plug-In . SVG Version: 6.00 Build 0)  -->
<svg version="1.1" id="图层_1" xmlns="http://www.w3.org/2000/svg" xmlns:xlink="http://www.w3.org/1999/xlink" x="0px" y="0px"
	 viewBox="0 0 16 16" style="enable-background:new 0 0 16 16;" xml:space="preserve">
<style type="text/css">
	.st0{fill:#5C8CCB;}
	.st1{fill:#FFFFFF;}
</style>
<title>银行卡</title>
<desc>Created with Sketch.</desc>
<g id="Page-1">
	<g id="名单管理-最近交易记录" transform="translate(-893.000000, -269.000000)">
		<g id="弹出" transform="translate(407.000000, 140.000000)">
			<g id="交易次数" transform="translate(25.000000, 102.000000)">
				<g id="_x34_" transform="translate(409.000000, 0.000000)">
					<g id="支付方式" transform="translate(1.000000, 27.000000)">
						<g id="银行卡" transform="translate(50.972431, 0.000000)">
							<ellipse id="Oval-6" class="st0" cx="8" cy="8" rx="8" ry="8"/>
							<path id="Fill-1" class="st1" d="M12.7,4.8H3.4C3.1,4.8,2.9,5,2.9,5.3V6h10.4V5.3C13.2,5,13,4.8,12.7,4.8z M3.3,7.1H2.9v3.6
								c0,0.3,0.3,0.5,0.6,0.5h9.2c0.3,0,0.6-0.2,0.6-0.5V7.1H3.3z M4,9.1h2.3V8.7H4V9.1z M4,10.1h3.8V9.8H4V10.1z M12.1,9.8
								c0,0.2-0.2,0.3-0.4,0.3h-0.8c-0.2,0-0.4-0.2-0.4-0.3v0c0-0.2,0.2-0.3,0.4-0.3h0.8C11.9,9.4,12.1,9.6,12.1,9.8L12.1,9.8z"/>
						</g>
					</g>
				</g>
			</g>
		</g>
	</g>
</g>
</svg>
