<?xml version="1.0" encoding="utf-8"?>
<!-- Generator: Adobe Illustrator 22.1.0, SVG Export Plug-In . SVG Version: 6.00 Build 0)  -->
<svg version="1.1" id="图层_1" xmlns="http://www.w3.org/2000/svg" xmlns:xlink="http://www.w3.org/1999/xlink" x="0px" y="0px"
	 viewBox="0 0 16 16" style="enable-background:new 0 0 16 16;" xml:space="preserve">
<style type="text/css">
	.st0{fill:#113984;}
	.st1{filter:url(#Adobe_OpacityMaskFilter);}
	.st2{fill:#FFFFFF;}
	.st3{mask:url(#mask-2_1_);fill:#FFFFFF;}
</style>
<title>paypal</title>
<desc>Created with Sketch.</desc>
<g id="Page-1">
	<g id="名单管理-最近交易记录" transform="translate(-918.000000, -269.000000)">
		<g id="弹出" transform="translate(407.000000, 140.000000)">
			<g id="交易次数" transform="translate(25.000000, 102.000000)">
				<g id="_x34_" transform="translate(409.000000, 0.000000)">
					<g id="支付方式" transform="translate(1.000000, 27.000000)">
						<g id="paypal" transform="translate(76.060150, 0.000000)">
							<ellipse id="Oval-6" class="st0" cx="8" cy="8" rx="8" ry="8"/>
							<g transform="translate(3.984962, 3.520020)">
								<g id="Clip-2">
								</g>
								<defs>
									<filter id="Adobe_OpacityMaskFilter" filterUnits="userSpaceOnUse" x="0" y="0" width="9.6" height="9.6">
										<feColorMatrix  type="matrix" values="1 0 0 0 0  0 1 0 0 0  0 0 1 0 0  0 0 0 1 0"/>
									</filter>
								</defs>
								<mask maskUnits="userSpaceOnUse" x="0" y="0" width="9.6" height="9.6" id="mask-2_1_">
									<g class="st1">
										<polygon id="path-1_1_" class="st2" points="0,0 9.6,0 9.6,9.6 0,9.6 										"/>
									</g>
								</mask>
								<path id="Fill-1" class="st3" d="M8.2,1.2c0.2,0.1,0.4,0.3,0.6,0.5c0.3,0.4,0.4,1,0.3,1.8C8.9,4.2,8.6,4.8,8.1,5.3
									C8.1,5.4,8,5.5,7.9,5.6C7.4,6,6.7,6.2,6,6.2H3.8L3.2,9H1.9L2,8.6h0.4l0.6-2.8h1.8c1.7,0,3.1-1,3.5-2.8C8.7,0.9,7.3,0,6,0
									H1.9L0,8.6h1.4l-0.2,1h2.5l0.6-2.8H6c1.7,0,3.1-1,3.5-2.8C9.8,2.5,9.1,1.6,8.2,1.2L8.2,1.2z M3.9,1.8h1.2
									c0.6,0,1,0.5,0.8,1.2C5.8,3.6,5.2,4.1,4.6,4.1H3.4L3.9,1.8L3.9,1.8z"/>
							</g>
						</g>
					</g>
				</g>
			</g>
		</g>
	</g>
</g>
</svg>
