<?xml version="1.0" encoding="utf-8"?>
<!-- Generator: Adobe Illustrator 22.1.0, SVG Export Plug-In . SVG Version: 6.00 Build 0)  -->
<svg version="1.1" id="图层_1" xmlns="http://www.w3.org/2000/svg" xmlns:xlink="http://www.w3.org/1999/xlink" x="0px" y="0px"
	 viewBox="0 0 14 14" style="enable-background:new 0 0 14 14;" xml:space="preserve">
<style type="text/css">
	.st0{fill:#666666;}
</style>
<title>订单-灰</title>
<desc>Created with Sketch.</desc>
<g id="Page-1">
	<g id="变换-2" transform="translate(-602.000000, -174.000000)">
		<g id="我的" transform="translate(571.000000, 93.000000)">
			<g id="_x33_" transform="translate(1.000000, 77.333333)">
				<g id="订单-灰" transform="translate(30.500000, 4.000000)">
					<path id="Fill-1" class="st0" d="M12.4,0h-2.2C10,0,9.9,0.3,9.9,0.3L9.2,1.3c0,0-0.1,0.1-0.1,0.1c0,0-0.1,0-0.1,0H3.9
						c0,0,0,0-0.1,0c0,0,0,0,0,0L3.1,0.3C3.1,0.3,3,0,2.8,0H0.6C0.3,0,0,0.3,0,0.6v11.8C0,12.7,0.3,13,0.6,13h11.8
						c0.3,0,0.6-0.3,0.6-0.6V0.6C13,0.3,12.7,0,12.4,0z M12.5,12.4c0,0.1,0,0.1-0.1,0.1H0.6c-0.1,0-0.1,0-0.1-0.1V0.6
						c0-0.1,0-0.1,0.1-0.1h2l0.8,1.2l0.1,0.1c0.1,0.1,0.1,0.1,0.1,0.1c0,0,0.1,0.1,0.3,0.1l0,0h5.2l0,0c0.2,0,0.3-0.1,0.3-0.1
						c0.1,0,0.1-0.1,0.2-0.2l0,0l0,0l0.7-1.1h2c0.1,0,0.1,0,0.1,0.1V12.4z"/>
					<path id="Fill-2" class="st0" d="M4.5,0.5h3.9c0.1,0,0.2-0.1,0.2-0.2V0.2C8.6,0.1,8.6,0,8.5,0H4.5C4.4,0,4.3,0.1,4.3,0.2v0.1
						C4.3,0.4,4.4,0.5,4.5,0.5z"/>
					<path id="Fill-3" class="st0" d="M10,4.6H3c-0.1,0-0.2,0.1-0.2,0.2v0.1C2.8,5,2.9,5.1,3,5.1h7c0.1,0,0.2-0.1,0.2-0.2V4.8
						C10.2,4.7,10.1,4.6,10,4.6z"/>
					<path id="Fill-4" class="st0" d="M10,7.1H3c-0.1,0-0.2,0.1-0.2,0.2v0.1c0,0.1,0.1,0.2,0.2,0.2h7c0.1,0,0.2-0.1,0.2-0.2V7.2
						C10.2,7.1,10.1,7.1,10,7.1z"/>
					<path id="Fill-5" class="st0" d="M10,9.5H3c-0.1,0-0.2,0.1-0.2,0.2v0.1C2.8,9.9,2.9,10,3,10h7c0.1,0,0.2-0.1,0.2-0.2V9.7
						C10.2,9.6,10.1,9.5,10,9.5z"/>
				</g>
			</g>
		</g>
	</g>
</g>
</svg>
