<?xml version="1.0" encoding="utf-8"?>
<!-- Generator: Adobe Illustrator 22.1.0, SVG Export Plug-In . SVG Version: 6.00 Build 0)  -->
<svg version="1.1" id="图层_1" xmlns="http://www.w3.org/2000/svg" xmlns:xlink="http://www.w3.org/1999/xlink" x="0px" y="0px"
	 viewBox="0 0 51 74" style="enable-background:new 0 0 51 74;" xml:space="preserve">
<style type="text/css">
	.st0{fill:#EDEDED;}
	.st1{fill:#E5E5E5;}
	.st2{fill:#FFFFFF;}
	.st3{fill:#F2F2F2;}
	.st4{fill:url(#Rectangle-13_1_);}
</style>
<title>未完成订单icon</title>
<desc>Created with Sketch.</desc>
<g id="Page-1">
	<g id="场外交易-暂无订单记录" transform="translate(-935.000000, -1175.000000)">
		<g id="暂无未完成订单" transform="translate(15.000000, 1080.000000)">
			<g id="_x2D_内容" transform="translate(795.000000, 95.000000)">
				<g id="未完成订单icon" transform="translate(125.000000, 0.000000)">
					<path id="Oval-5" class="st0" d="M25.5,4.6c1.5,0,2.8-1,2.8-2.3S27,0,25.5,0s-2.8,1-2.8,2.3S24,4.6,25.5,4.6z"/>
					<path id="Rectangle-12" class="st1" d="M3.2,2.4h44.6c1.8,0,3.2,1.4,3.2,3.2v65.2c0,1.8-1.4,3.2-3.2,3.2H3.2
						C1.4,74,0,72.6,0,70.8V5.6C0,3.8,1.4,2.4,3.2,2.4z"/>
					<path id="Rectangle-14" class="st2" d="M5.6,10.5h39.8c0.9,0,1.6,0.7,1.6,1.6v57.1c0,0.9-0.7,1.6-1.6,1.6H5.6
						c-0.9,0-1.6-0.7-1.6-1.6V12.1C4,11.2,4.7,10.5,5.6,10.5z"/>
					<rect id="Rectangle-15" x="11.2" y="20.9" class="st3" width="29.5" height="1.6"/>
					<rect id="Rectangle-15-Copy" x="11.2" y="29" class="st3" width="29.5" height="1.6"/>
					<rect id="Rectangle-15-Copy-2" x="11.2" y="37" class="st3" width="29.5" height="1.6"/>
					<rect id="Rectangle-15-Copy-3" x="11.2" y="45" class="st3" width="29.5" height="1.6"/>
					<rect id="Rectangle-15-Copy-4" x="11.2" y="53.1" class="st3" width="29.5" height="1.6"/>
					<rect id="Rectangle-15-Copy-5" x="11.2" y="61.1" class="st3" width="29.5" height="1.6"/>
					
						<linearGradient id="Rectangle-13_1_" gradientUnits="userSpaceOnUse" x1="19.7157" y1="50.0838" x2="19.7157" y2="49.2162" gradientTransform="matrix(25.5 0 0 -4.8261 -477.25 244.7609)">
						<stop  offset="0" style="stop-color:#E5E5E5"/>
						<stop  offset="1" style="stop-color:#D2D2D2"/>
					</linearGradient>
					<path id="Rectangle-13" class="st4" d="M15.2,2.4h20.7c1.3,0,2.4,1.1,2.4,2.4l0,0c0,1.3-1.1,2.4-2.4,2.4H15.2
						c-1.3,0-2.4-1.1-2.4-2.4l0,0C12.8,3.5,13.8,2.4,15.2,2.4z"/>
				</g>
			</g>
		</g>
	</g>
</g>
</svg>
