<?xml version="1.0" encoding="utf-8"?>
<!-- Generator: Adobe Illustrator 22.1.0, SVG Export Plug-In . SVG Version: 6.00 Build 0)  -->
<svg version="1.1" id="图层_1" xmlns="http://www.w3.org/2000/svg" xmlns:xlink="http://www.w3.org/1999/xlink" x="0px" y="0px"
	 viewBox="0 0 12 14" style="enable-background:new 0 0 12 14;" xml:space="preserve">
<style type="text/css">
	.st0{fill:#009DE2;}
	.st1{fill:#113984;}
	.st2{fill:#172C70;}
</style>
<title>paypal 支付</title>
<desc>Created with Sketch.</desc>
<g id="Page-1">
	<g id="交易设置" transform="translate(-340.000000, -361.000000)">
		<g id="银行信息" transform="translate(328.000000, 193.000000)">
			<g id="_x34_" transform="translate(0.000000, 165.000000)">
				<g id="Group-11" transform="translate(12.000000, 0.000000)">
					<g id="paypal-支付" transform="translate(0.000000, 3.000000)">
						<g id="Group-4">
							<path id="Fill-1" class="st0" d="M5.1,3.3h4c2.2,0,3,1.1,2.8,2.6c-0.2,2.6-1.8,4-3.9,4H7c-0.3,0-0.5,0.2-0.6,0.7l-0.5,3
								c0,0.2-0.1,0.3-0.3,0.3H3.1c-0.2,0-0.3-0.2-0.3-0.6l1.5-9.6C4.5,3.5,4.7,3.3,5.1,3.3L5.1,3.3z"/>
							<path id="Fill-3" class="st1" d="M2.6,0h4C7.8,0,9.1,0,10,0.8c0.6,0.5,0.9,1.3,0.8,2.2c-0.2,3-2.1,4.7-4.5,4.7h-2
								C4,7.8,3.8,8,3.7,8.6L3.1,12c0,0.2-0.1,0.4-0.3,0.4H0.3C0,12.4,0,12.2,0,11.7L1.8,0.7C1.9,0.2,2.1,0,2.6,0z"/>
						</g>
						<path id="Fill-5" class="st2" d="M3.7,8.2l0.7-4.4c0.1-0.4,0.3-0.6,0.7-0.6h4c0.7,0,1.2,0.1,1.6,0.3c-0.4,2.7-2.2,4.2-4.5,4.2
							h-2C4,7.8,3.8,7.9,3.7,8.2L3.7,8.2z"/>
					</g>
				</g>
			</g>
		</g>
	</g>
</g>
</svg>
