<?xml version="1.0" encoding="utf-8"?>
<!-- Generator: Adobe Illustrator 22.1.0, SVG Export Plug-In . SVG Version: 6.00 Build 0)  -->
<svg version="1.1" id="图层_1" xmlns="http://www.w3.org/2000/svg" xmlns:xlink="http://www.w3.org/1999/xlink" x="0px" y="0px"
	 viewBox="0 0 20 20" style="enable-background:new 0 0 20 20;" xml:space="preserve">
<style type="text/css">
	.st0{fill:#FFFFFF;}
	.st1{fill:#2C3253;}
</style>
<title>人物</title>
<desc>Created with Sketch.</desc>
<g id="Page-1">
	<g id="安全设置-手机认证" transform="translate(-1520.000000, -27.000000)">
		<g id="logo">
			<g id="文案" transform="translate(486.000000, 26.000000)">
				<g id="Group-5">
					<g id="Group-2" transform="translate(1034.000000, 1.000000)">
						<g id="人物">
							<path id="个人-_x28_9_x29_" class="st0" d="M10,20c-2.7,0-5.2-1.1-7.1-3c-0.1-0.1-0.1-0.2-0.1-0.3c0.1-1.9,1.3-2.4,3.5-3.4
								C6.6,13.2,7,13,7.4,12.8c0.2-0.1,0.5-0.7,0.6-1.3c-1-0.8-1.5-2.2-1.5-4c0-2.7,1.9-3.7,3.5-3.7c1.6,0,3.5,1,3.5,3.7
								c0,1.8-0.5,3.2-1.5,4c0.2,0.6,0.4,1.2,0.6,1.3c0.4,0.2,0.7,0.3,1.1,0.5c2.2,1,3.4,1.5,3.5,3.4c0,0.1,0,0.2-0.1,0.3
								C15.2,18.9,12.7,20,10,20z"/>
							<path id="Path" class="st1" d="M3.6,16.6c1.7,1.7,4,2.6,6.4,2.6c2.4,0,4.7-0.9,6.4-2.6c-0.1-1.1-0.9-1.5-3-2.5
								c-0.3-0.1-0.7-0.3-1.1-0.5c-0.6-0.3-0.9-1.1-1.1-2l0-0.1c-0.1-0.2,0-0.4,0.2-0.5c0.9-0.6,1.4-1.8,1.4-3.5
								c0-2.6-2-2.8-2.6-2.8c-0.6,0-2.6,0.2-2.6,2.8c0,1.6,0.5,2.9,1.4,3.5c0.2,0.1,0.2,0.3,0.2,0.5l0,0.1c-0.3,0.9-0.5,1.7-1.1,2
								c-0.4,0.2-0.7,0.3-1.1,0.5C4.5,15,3.7,15.4,3.6,16.6z"/>
							<path id="Path_1_" class="st0" d="M16.8,17.1c0,0-0.1,0-0.1,0c-0.2-0.1-0.3-0.2-0.3-0.4c-0.1-1.3-0.8-1.7-3-2.7
								c-0.3-0.1-0.7-0.3-1.1-0.5c-0.6-0.3-0.9-1.1-1.1-2l0-0.1c-0.1-0.2,0-0.4,0.2-0.5c0.9-0.6,1.4-1.8,1.4-3.5
								c0-2.6-2-2.8-2.6-2.8c-0.6,0-2.6,0.2-2.6,2.8c0,1.6,0.5,2.9,1.4,3.5c0.2,0.1,0.2,0.3,0.2,0.5l0,0.1c-0.3,0.9-0.5,1.7-1.1,2
								c-0.4,0.2-0.7,0.3-1.1,0.5c-2.3,1-3,1.4-3,2.7c0,0.2-0.1,0.3-0.3,0.4c-0.2,0.1-0.3,0-0.4-0.1C1,15.1,0,12.6,0,10
								C0,4.5,4.5,0,10,0c5.5,0,10,4.5,10,10c0,2.6-1,5.1-2.9,7C17,17.1,16.9,17.1,16.8,17.1z"/>
							<path id="Path_2_" class="st1" d="M12,11.5c0.2,0.6,0.4,1.2,0.6,1.3c0.4,0.2,0.7,0.3,1.1,0.5c1.8,0.8,3,1.3,3.4,2.5
								c1.3-1.6,2.1-3.7,2.1-5.8c0-5.1-4.1-9.2-9.2-9.2c-5.1,0-9.2,4.1-9.2,9.2c0,2.1,0.7,4.2,2.1,5.8c0.4-1.2,1.6-1.7,3.4-2.5
								C6.6,13.2,7,13,7.4,12.8c0.2-0.1,0.5-0.7,0.6-1.3c-1-0.8-1.5-2.2-1.5-4c0-2.7,1.9-3.7,3.5-3.7c1.6,0,3.5,1,3.5,3.7
								C13.5,9.3,12.9,10.7,12,11.5z"/>
						</g>
					</g>
				</g>
			</g>
		</g>
	</g>
</g>
</svg>
