<?xml version="1.0" encoding="utf-8"?>
<!-- Generator: Adobe Illustrator 22.1.0, SVG Export Plug-In . SVG Version: 6.00 Build 0)  -->
<svg version="1.1" id="图层_1" xmlns="http://www.w3.org/2000/svg" xmlns:xlink="http://www.w3.org/1999/xlink" x="0px" y="0px"
	 viewBox="0 0 12 14" style="enable-background:new 0 0 12 14;" xml:space="preserve">
<style type="text/css">
	.st0{fill:#0BB2FE;}
</style>
<title>实名认证-蓝色</title>
<desc>Created with Sketch.</desc>
<g id="Page-1">
	<g id="个人信息" transform="translate(-371.000000, -180.000000)">
		<g id="标题" transform="translate(370.000000, 99.000000)">
			<g id="_x33_" transform="translate(1.000000, 78.000000)">
				<g id="实名认证-蓝色" transform="translate(0.000000, 3.000000)">
					<path id="Fill-1" class="st0" d="M11.1,1.9c-0.4,0-0.9,0-1.6-0.1C7.5,1.5,6,0,6,0S4.5,1.5,2.5,1.8C1.8,1.9,1.3,1.9,0.9,1.9
						C0.2,1.9,0,1.8,0,1.8L0,9c0,0,0.6,2.4,2.8,3.7C5,13.9,6,14,6,14s1-0.1,3.2-1.3C11.4,11.4,12,9,12,9l0-7.2
						C12,1.8,11.8,1.9,11.1,1.9z M11.2,8.9C11.1,9.1,11,9.5,10.7,10c-0.2,0.4-0.5,0.7-0.8,1.1c-0.3,0.4-0.7,0.7-1.2,0.9
						c-1,0.6-1.7,0.9-2.2,1c-0.3,0.1-0.5,0.2-0.6,0.2c-0.1,0-0.3-0.1-0.6-0.2c-0.4-0.1-1.2-0.4-2.2-1c-0.4-0.2-0.8-0.6-1.2-0.9
						c-0.3-0.3-0.5-0.7-0.8-1C1,9.5,0.8,9.1,0.8,8.9l0-6.2c0,0,0.1,0,0.1,0c0.5,0,1,0,1.7-0.1C4.1,2.4,5.3,1.6,6,1
						c0.7,0.5,1.9,1.3,3.4,1.5c0.6,0.1,1.2,0.1,1.7,0.1c0,0,0.1,0,0.1,0L11.2,8.9z M9.1,4.4L9.6,5L5,9.6L2.4,6.9l0.6-0.6L5,8.5
						L9.1,4.4z"/>
				</g>
			</g>
		</g>
	</g>
</g>
</svg>
