<?xml version="1.0" encoding="utf-8"?>
<!-- Generator: Adobe Illustrator 22.1.0, SVG Export Plug-In . SVG Version: 6.00 Build 0)  -->
<svg version="1.1" id="图层_1" xmlns="http://www.w3.org/2000/svg" xmlns:xlink="http://www.w3.org/1999/xlink" x="0px" y="0px"
	 viewBox="0 0 13 14" style="enable-background:new 0 0 13 14;" xml:space="preserve">
<style type="text/css">
	.st0{fill:#0BB2FE;}
</style>
<title>安全设置-蓝色</title>
<desc>Created with Sketch.</desc>
<g id="Page-1">
	<g id="个人信息" transform="translate(-372.000000, -145.000000)">
		<g id="标题" transform="translate(370.000000, 99.000000)">
			<g id="_x32_" transform="translate(2.000000, 42.000000)">
				<g id="_x31_">
					<g id="安全设置-蓝色" transform="translate(0.000000, 4.000000)">
						<path id="Fill-1" class="st0" d="M11.6,7.5c0-0.2,0-0.3,0-0.5s0-0.3,0-0.5l1.2-1c0.3-0.2,0.3-0.6,0.2-0.9l-1.3-2.3
							c-0.2-0.3-0.5-0.4-0.8-0.3L9.4,2.6C9.2,2.4,8.9,2.3,8.6,2.2L8.4,0.6C8.4,0.3,8.1,0,7.8,0H5.2C4.9,0,4.6,0.2,4.6,0.6L4.4,2.2
							C4.1,2.3,3.8,2.4,3.6,2.6L2.2,2c-0.3-0.1-0.7,0-0.8,0.3L0.1,4.6C-0.1,4.9,0,5.3,0.3,5.5l1.2,1c0,0.2,0,0.3,0,0.5s0,0.3,0,0.5
							l-1.2,1C0,8.7-0.1,9.1,0.1,9.3l1.3,2.3c0.2,0.3,0.5,0.4,0.8,0.3l1.4-0.6c0.3,0.2,0.5,0.4,0.8,0.5l0.2,1.6
							C4.6,13.8,4.9,14,5.2,14h2.5c0.3,0,0.6-0.3,0.7-0.6l0.2-1.6c0.3-0.1,0.5-0.3,0.8-0.5l1.4,0.6c0.1,0,0.2,0,0.2,0
							c0.2,0,0.5-0.1,0.6-0.4l1.3-2.3c0.2-0.3,0.1-0.7-0.2-0.9L11.6,7.5z M11.1,11.3l-1.6-0.7c-0.1-0.1-0.3,0-0.4,0.1
							c-0.3,0.3-0.6,0.5-1,0.6C8.1,11.3,8,11.4,8,11.5l-0.2,1.7l-2.5,0L5,11.5c0-0.1-0.1-0.2-0.2-0.3c-0.3-0.1-0.7-0.4-1-0.6
							c-0.1-0.1-0.1-0.1-0.2-0.1c0,0-0.1,0-0.1,0L2,11.3L0.7,9L2,7.9c0.1-0.1,0.1-0.2,0.1-0.3c0-0.2,0-0.4,0-0.6c0-0.2,0-0.4,0-0.6
							c0-0.1,0-0.3-0.1-0.3L0.7,5l1.2-2.3l1.6,0.7c0.1,0.1,0.3,0,0.4,0c0.3-0.3,0.6-0.5,1-0.6C4.9,2.7,5,2.6,5,2.5l0.2-1.7l2.5,0
							L8,2.5c0,0.1,0.1,0.2,0.2,0.3c0.3,0.1,0.7,0.4,1,0.6c0.1,0.1,0.2,0.1,0.4,0.1L11,2.7L12.3,5L11,6.1c-0.1,0.1-0.1,0.2-0.1,0.3
							c0,0.2,0,0.4,0,0.6s0,0.4,0,0.6c0,0.1,0,0.3,0.1,0.3l1.3,1L11.1,11.3z M6.5,4.2C5,4.2,3.9,5.5,3.9,7c0,1.5,1.2,2.8,2.7,2.8
							C8,9.8,9.2,8.5,9.2,7S8,4.2,6.5,4.2z M6.5,9C5.4,9,4.6,8.1,4.6,7c0-1.1,0.9-2,1.9-2c1.1,0,1.9,0.9,1.9,2C8.4,8.1,7.6,9,6.5,9z
							"/>
					</g>
				</g>
			</g>
		</g>
	</g>
</g>
</svg>
