<?xml version="1.0" encoding="utf-8"?>
<!-- Generator: Adobe Illustrator 22.1.0, SVG Export Plug-In . SVG Version: 6.00 Build 0)  -->
<svg version="1.1" id="图层_1" xmlns="http://www.w3.org/2000/svg" xmlns:xlink="http://www.w3.org/1999/xlink" x="0px" y="0px"
	 viewBox="0 0 16 16" style="enable-background:new 0 0 16 16;" xml:space="preserve">
<style type="text/css">
	.st0{filter:url(#Adobe_OpacityMaskFilter);}
	.st1{fill:#FFFFFF;}
	.st2{mask:url(#mask-2_1_);fill:#666666;}
	.st3{fill:#666666;}
</style>
<title>安全设置-灰</title>
<desc>Created with Sketch.</desc>
<g id="Page-1">
	<g id="变换-2" transform="translate(-571.000000, -139.000000)">
		<g id="我的" transform="translate(571.000000, 93.000000)">
			<g id="_x32_" transform="translate(0.000000, 44.000000)">
				<g id="安全设置-灰" transform="translate(0.000000, 2.000000)">
					<g id="Group-3" transform="translate(0.770053, 0.770053)">
						<g id="Clip-2">
						</g>
						<defs>
							<filter id="Adobe_OpacityMaskFilter" filterUnits="userSpaceOnUse" x="0" y="0" width="14.5" height="14.4">
								<feColorMatrix  type="matrix" values="1 0 0 0 0  0 1 0 0 0  0 0 1 0 0  0 0 0 1 0"/>
							</filter>
						</defs>
						<mask maskUnits="userSpaceOnUse" x="0" y="0" width="14.5" height="14.4" id="mask-2_1_">
							<g class="st0">
								<polygon id="path-1_1_" class="st1" points="0,0 14.5,0 14.5,14.4 0,14.4 								"/>
							</g>
						</mask>
						<path id="Fill-1" class="st2" d="M7.9,0.4c0.2,0,0.4,0.1,0.4,0.3l0.1,1.3l0.3,0.1c0.3,0.1,0.7,0.2,1,0.4L10,2.7l1-0.8
							c0.1,0,0.1-0.1,0.2-0.1c0.1,0,0.2,0.1,0.3,0.1l1,1c0.2,0.2,0.2,0.4,0.1,0.5l-0.8,1l0.1,0.3c0.2,0.3,0.3,0.6,0.4,1L12.4,6
							l0.3,0l1,0.1c0.2,0,0.3,0.2,0.3,0.4v1.4c0,0.2-0.1,0.4-0.3,0.4l-1,0.1l-0.3,0l-0.1,0.3c-0.1,0.3-0.2,0.7-0.4,1L11.8,10l0.8,1
							c0.1,0.1,0.1,0.4-0.1,0.5l-1,1c-0.1,0.1-0.2,0.1-0.3,0.1c-0.1,0-0.1,0-0.2-0.1l-1-0.8l-0.3,0.1c-0.3,0.2-0.6,0.3-1,0.4
							l-0.3,0.1l-0.1,1.3c0,0.2-0.2,0.3-0.4,0.3H6.5c-0.2,0-0.4-0.1-0.4-0.3L6,12.4l-0.3-0.1c-0.3-0.1-0.7-0.2-1-0.4l-0.3-0.1
							l-1,0.8c-0.1,0-0.1,0.1-0.2,0.1c-0.1,0-0.2-0.1-0.3-0.1l-1-1c-0.2-0.2-0.2-0.4-0.1-0.5l0.8-1L2.5,9.7c-0.2-0.3-0.3-0.6-0.4-1
							L2.1,8.5l-0.3,0l-1-0.1c-0.2,0-0.3-0.2-0.3-0.4V6.5c0-0.2,0.1-0.4,0.3-0.4l1-0.1l0.3,0l0.1-0.3c0.1-0.3,0.2-0.7,0.4-1l0.1-0.3
							l-0.8-1C1.8,3.3,1.8,3.1,1.9,2.9l1-1C3,1.9,3.1,1.8,3.2,1.8c0.1,0,0.1,0,0.2,0.1l1,0.8l0.3-0.1c0.3-0.2,0.6-0.3,1-0.4L6,2.1
							l0.1-1.3c0-0.2,0.2-0.3,0.4-0.3L7.9,0.4L7.9,0.4z M7.9,0H6.5C6.1,0,5.7,0.3,5.7,0.7l-0.1,1C5.2,1.8,4.8,2,4.5,2.2L3.7,1.5
							C3.6,1.4,3.4,1.4,3.2,1.4C3,1.4,2.8,1.5,2.6,1.6l-1,1C1.3,2.9,1.3,3.4,1.5,3.7l0.6,0.8C2,4.8,1.8,5.2,1.7,5.6l-1,0.1
							C0.3,5.7,0,6.1,0,6.5v1.4c0,0.4,0.3,0.8,0.7,0.9l1,0.1C1.8,9.2,2,9.6,2.2,9.9l-0.6,0.8c-0.3,0.3-0.2,0.8,0.1,1.1l1,1
							C2.8,13,3,13.1,3.2,13.1c0.2,0,0.3-0.1,0.5-0.2l0.8-0.6c0.3,0.2,0.7,0.3,1.1,0.4l0.1,1c0,0.4,0.4,0.7,0.9,0.7h1.4
							c0.4,0,0.8-0.3,0.9-0.7l0.1-1c0.4-0.1,0.7-0.3,1.1-0.4l0.8,0.6c0.1,0.1,0.3,0.2,0.5,0.2c0.2,0,0.5-0.1,0.6-0.3l1-1
							c0.3-0.3,0.4-0.8,0.1-1.1l-0.6-0.8c0.2-0.3,0.3-0.7,0.4-1.1l1-0.1c0.4,0,0.7-0.4,0.7-0.9V6.5c0-0.4-0.3-0.8-0.7-0.9l-1-0.1
							c-0.1-0.4-0.3-0.7-0.4-1.1l0.6-0.8c0.3-0.3,0.2-0.8-0.1-1.1l-1-1c-0.2-0.2-0.4-0.3-0.6-0.3c-0.2,0-0.3,0.1-0.5,0.2L10,2.2
							C9.6,2,9.3,1.8,8.9,1.7l-0.1-1C8.7,0.3,8.4,0,7.9,0z"/>
					</g>
					<path id="Fill-4" class="st3" d="M8,10.1c-1.2,0-2.1-0.9-2.1-2.1S6.8,5.9,8,5.9s2.1,0.9,2.1,2.1S9.2,10.1,8,10.1z M8,6.3
						C7,6.3,6.3,7,6.3,8c0,1,0.8,1.7,1.7,1.7S9.7,8.9,9.7,8C9.7,7,9,6.3,8,6.3z"/>
				</g>
			</g>
		</g>
	</g>
</g>
</svg>
