<?xml version="1.0" encoding="utf-8"?>
<!-- Generator: Adobe Illustrator 22.1.0, SVG Export Plug-In . SVG Version: 6.00 Build 0)  -->
<svg version="1.1" id="图层_1" xmlns="http://www.w3.org/2000/svg" xmlns:xlink="http://www.w3.org/1999/xlink" x="0px" y="0px"
	 viewBox="0 0 14 12" style="enable-background:new 0 0 14 12;" xml:space="preserve">
<style type="text/css">
	.st0{fill:#FF7C44;}
</style>
<title>商铺</title>
<desc>Created with Sketch.</desc>
<g id="Page-1">
	<g id="场外交易-卖出" transform="translate(-1072.000000, -168.000000)">
		<g id="弹出" transform="translate(664.000000, 54.000000)">
			<g id="_x31_" transform="translate(69.000000, 79.000000)">
				<g id="_x32_" transform="translate(59.000000, 0.666667)">
					<g transform="translate(254.000000, 26.000000)">
						<g id="Group-13" transform="translate(26.000000, 6.000000)">
							<path id="商铺" class="st0" d="M1.6,4.2h10.7C12.7,4.2,13,4,13,3.6C13,3.3,12.7,3,12.3,3H1.6C1.3,3,1,3.3,1,3.6
								C0.9,4,1.2,4.2,1.6,4.2z M12.5,9.7c-0.3,0-0.5,0.2-0.5,0.4v3.1H1.9v-3c0-0.2-0.2-0.4-0.5-0.4s-0.5,0.2-0.5,0.4v3.5
								c0,0.2,0.2,0.4,0.5,0.4h11.1c0.3,0,0.5-0.2,0.5-0.4v-3.5C13,9.9,12.8,9.7,12.5,9.7z M13.7,6.9l-0.9-2.2H1.1L0.2,6.9
								C0.1,7.1,0,7.3,0,7.5C0,8.4,0.8,9,1.7,9c1,0,1.7-0.7,1.7-1.5C3.5,8.4,4.3,9,5.3,9C6.2,9,7,8.4,7,7.5C7,8.4,7.8,9,8.7,9
								c0.9,0,1.7-0.7,1.7-1.5c0,0.8,0.8,1.5,1.8,1.5C13.2,9,14,8.4,14,7.5C13.9,7.3,13.9,7.1,13.7,6.9z"/>
						</g>
					</g>
				</g>
			</g>
		</g>
	</g>
</g>
</svg>
