<?xml version="1.0" encoding="utf-8"?>
<!-- Generator: Adobe Illustrator 22.1.0, SVG Export Plug-In . SVG Version: 6.00 Build 0)  -->
<svg version="1.1" id="图层_1" xmlns="http://www.w3.org/2000/svg" xmlns:xlink="http://www.w3.org/1999/xlink" x="0px" y="0px"
	 viewBox="0 0 16 16" style="enable-background:new 0 0 16 16;" xml:space="preserve">
<style type="text/css">
	.st0{fill:#0BB2FE;}
	.st1{fill:#FFFFFF;}
</style>
<title>星星</title>
<desc>Created with Sketch.</desc>
<g id="Page-1">
	<g id="场外交易-暂无订单记录" transform="translate(-50.000000, -799.000000)">
		<g id="常见问题" transform="translate(15.000000, 331.000000)">
			<g id="Group-13" transform="translate(35.000000, 465.000000)">
				<g id="星星" transform="translate(0.000000, 3.000000)">
					<path id="Fill-1" class="st0" d="M16,6.1c-0.1-0.2-0.2-0.4-0.5-0.4l-4.8-0.7L8.5,0.3C8.4,0.1,8.2,0,8,0C7.8,0,7.6,0.1,7.5,0.3
						L5.3,4.9L0.5,5.7C0.3,5.7,0.1,5.9,0,6.1C0,6.3,0,6.5,0.2,6.6l3.5,3.6l-0.8,5.1c0,0.2,0.1,0.4,0.2,0.6c0.2,0.1,0.4,0.1,0.6,0
						L8,13.5l4.3,2.4c0.1,0,0.2,0.1,0.3,0.1c0.1,0,0.2,0,0.3-0.1c0.2-0.1,0.3-0.3,0.2-0.6l-0.8-5.1l3.5-3.6C16,6.5,16,6.3,16,6.1z"
						/>
					<g id="问好" transform="translate(6.000000, 6.000000)">
						<path id="Fill-1_1_" class="st1" d="M3,0.4C2.6,0.2,2.1,0.1,1.6,0.2C1.5,0.2,0.5,0.4,0.1,1C0,1.2,0.1,1.4,0.3,1.5
							c0.2,0.1,0.5,0,0.6-0.2C1,1.1,1.6,0.9,1.8,0.9c0,0,0,0,0,0c0.3-0.1,0.5,0,0.6,0.1c0.3,0.2,0.5,0.5,0.5,0.9
							c0,0.3-0.3,0.4-0.6,0.7C2,2.8,1.7,3,1.5,3.3C1.2,3.6,1,4,1.1,4.5c0,0.2,0.2,0.4,0.4,0.4c0,0,0,0,0,0c0.2,0,0.4-0.2,0.4-0.4
							c0-0.6,0.4-0.9,0.9-1.3c0.4-0.3,0.9-0.7,1-1.3C3.8,1.4,3.5,0.8,3,0.4z"/>
						<path id="Fill-5" class="st1" d="M1,5.5c0,0.1,0.1,0.3,0.2,0.4C1.4,6,1.6,6,1.7,5.9C1.9,5.8,2,5.7,2,5.5
							c0-0.1-0.1-0.3-0.2-0.4c-0.1-0.1-0.3-0.1-0.5,0C1.1,5.3,1,5.4,1,5.5z"/>
					</g>
				</g>
			</g>
		</g>
	</g>
</g>
</svg>
