<?xml version="1.0" encoding="utf-8"?>
<!-- Generator: Adobe Illustrator 22.1.0, SVG Export Plug-In . SVG Version: 6.00 Build 0)  -->
<svg version="1.1" id="图层_1" xmlns="http://www.w3.org/2000/svg" xmlns:xlink="http://www.w3.org/1999/xlink" x="0px" y="0px"
	 viewBox="0 0 18 16" style="enable-background:new 0 0 18 16;" xml:space="preserve">
<style type="text/css">
	.st0{fill:none;stroke:#666666;stroke-width:0.88;stroke-linecap:round;}
	.st1{fill:#666666;}
</style>
<title>提币-灰</title>
<desc>Created with Sketch.</desc>
<g id="Page-1">
	<g id="资金记录" transform="translate(-146.000000, -191.000000)">
		<g id="标题" transform="translate(119.000000, 101.000000)">
			<g id="_x32_" transform="translate(26.000000, 53.000000)">
				<g id="提币-灰" transform="translate(2.000000, 38.000000)">
					<path id="Oval-2" class="st0" d="M10.4,0.6C9.5,0.2,8.5,0,7.4,0C3.3,0,0,3.1,0,7s3.3,7,7.4,7s7.4-3.1,7.4-7"/>
					<g id="_xFFE5_" transform="translate(3.966667, 3.230769)">
						<path id="Rectangle-5-Copy" class="st1" d="M0.5,4.3h5.8c0.3,0,0.5,0.2,0.5,0.5l0,0c0,0.3-0.2,0.5-0.5,0.5H0.5
							C0.2,5.3,0,5.1,0,4.8l0,0C0,4.5,0.2,4.3,0.5,4.3z"/>
						<path id="Rectangle-5-Copy-5" class="st1" d="M3,7.7V2.5c0-0.2,0.2-0.4,0.4-0.4l0,0c0.2,0,0.4,0.2,0.4,0.4v5.2
							c0,0.2-0.2,0.4-0.4,0.4l0,0C3.2,8.1,3,7.9,3,7.7z"/>
						<path id="Rectangle-5-Copy-2" class="st1" d="M0.5,2.2h5.8c0.3,0,0.5,0.2,0.5,0.5l0,0c0,0.3-0.2,0.5-0.5,0.5H0.5
							C0.2,3.2,0,2.9,0,2.7l0,0C0,2.4,0.2,2.2,0.5,2.2z"/>
						<g id="Group-12" transform="translate(0.566667, 0.000000)">
							<path id="Rectangle-5-Copy-3" class="st1" d="M2.6,2.2l2-2c0.1-0.1,0.4-0.1,0.5,0l0,0c0.1,0.1,0.1,0.4,0,0.5l-2,2
								c-0.1,0.1-0.4,0.1-0.5,0l0,0C2.4,2.6,2.4,2.4,2.6,2.2z"/>
							<path id="Rectangle-5-Copy-4" class="st1" d="M3.1,2.2l-2-2c-0.1-0.1-0.4-0.1-0.5,0l0,0c-0.1,0.1-0.1,0.4,0,0.5l2,2
								c0.1,0.1,0.4,0.1,0.5,0l0,0C3.2,2.6,3.2,2.4,3.1,2.2z"/>
						</g>
					</g>
					<g id="Group-4" transform="translate(11.333333, 1.076923)">
						<path id="Rectangle-5-Copy-6" class="st1" d="M1,1.5h3.7c0.2,0,0.4,0.2,0.4,0.4l0,0c0,0.2-0.2,0.4-0.4,0.4H1
							c-0.2,0-0.4-0.2-0.4-0.4l0,0C0.7,1.7,0.8,1.5,1,1.5z"/>
						<path id="Rectangle-5-Copy-7" class="st1" d="M3.8,0.2l1.4,1.4c0.1,0.1,0.1,0.4,0,0.5l0,0C5,2.3,4.7,2.3,4.6,2.1L3.2,0.8
							c-0.1-0.1-0.1-0.4,0-0.5l0,0C3.4,0.1,3.6,0.1,3.8,0.2z"/>
						<path id="Rectangle-5-Copy-8" class="st1" d="M4.6,1.7L3.2,3.1c-0.1,0.1-0.1,0.4,0,0.5l0,0c0.1,0.1,0.4,0.1,0.5,0l1.4-1.4
							c0.1-0.1,0.1-0.4,0-0.5l0,0C5,1.6,4.7,1.6,4.6,1.7z"/>
					</g>
				</g>
			</g>
		</g>
	</g>
</g>
</svg>
