<?xml version="1.0" encoding="utf-8"?>
<!-- Generator: Adobe Illustrator 22.1.0, SVG Export Plug-In . SVG Version: 6.00 Build 0)  -->
<svg version="1.1" id="图层_1" xmlns="http://www.w3.org/2000/svg" xmlns:xlink="http://www.w3.org/1999/xlink" x="0px" y="0px"
	 viewBox="0 0 29 29" style="enable-background:new 0 0 29 29;" xml:space="preserve">
<style type="text/css">
	.st0{fill:#FFFFFF;}
	.st1{fill:#0BB2FE;}
</style>
<title>icon</title>
<desc>Created with Sketch.</desc>
<g id="Page-1">
	<g id="实名认证-个人实名认证-中级" transform="translate(-656.000000, -325.000000)">
		<g id="正面照" transform="translate(540.000000, 237.000000)">
			<g id="上传_1_" transform="translate(106.000000, 88.000000)">
				<g id="icon-" transform="translate(10.000000, 0.000000)">
					<path id="Rectangle-13" class="st0" d="M14.5,0L14.5,0C22.5,0,29,6.5,29,14.5l0,0c0,8-6.5,14.5-14.5,14.5l0,0
						C6.5,29,0,22.5,0,14.5l0,0C0,6.5,6.5,0,14.5,0z"/>
					<path id="上传" class="st1" d="M20,20H8.8c-0.2,0-0.4-0.2-0.4-0.4v-3.1c0-0.2,0.2-0.4,0.4-0.4c0.2,0,0.4,0.2,0.4,0.4v2.7
						h10.4v-2.7c0-0.2,0.2-0.4,0.4-0.4s0.4,0.2,0.4,0.4v3.1C20.4,19.8,20.2,20,20,20z M16.1,13l-1.3-1.5v5.5c0,0.2-0.2,0.4-0.4,0.4
						c-0.2,0-0.4-0.2-0.4-0.4v-5.5L12.7,13c-0.2,0.2-0.4,0.2-0.6,0c-0.2-0.2-0.2-0.4,0-0.5l2-2.3c0.1-0.1,0.2-0.1,0.3-0.1
						c0.1,0,0.2,0,0.3,0.1l2,2.3c0.2,0.2,0.2,0.4,0,0.5C16.5,13.1,16.3,13.1,16.1,13z"/>
				</g>
			</g>
		</g>
	</g>
</g>
</svg>
