<?xml version="1.0" encoding="utf-8"?>
<!-- Generator: Adobe Illustrator 22.1.0, SVG Export Plug-In . SVG Version: 6.00 Build 0)  -->
<svg version="1.1" id="图层_1" xmlns="http://www.w3.org/2000/svg" xmlns:xlink="http://www.w3.org/1999/xlink" x="0px" y="0px"
	 viewBox="0 0 14 13" style="enable-background:new 0 0 14 13;" xml:space="preserve">
<style type="text/css">
	.st0{fill:#0BB2FE;}
</style>
<title>个人中心-蓝</title>
<desc>Created with Sketch.</desc>
<g id="Page-1">
	<g id="变换-2" transform="translate(-582.000000, -107.000000)">
		<g id="我的" transform="translate(571.000000, 93.000000)">
			<g id="_x31_" transform="translate(11.000000, 10.000000)">
				<g id="个人中心-蓝" transform="translate(0.000000, 4.000000)">
					<path id="Fill-1" class="st0" d="M14,12.9c0-0.1-0.1-0.3-0.1-0.4c-0.8-2.4-2.4-3.9-4.8-4.7C8.9,7.7,8.6,7.7,8.4,7.6
						C10.3,7,11.4,5,10.9,3c-0.4-1.7-2-3-3.8-3c-1.9,0-3.5,1.1-4,2.9C2.9,3.8,2.9,4.6,3.3,5.5c0.5,1,1.2,1.7,2.3,2.2
						c-0.1,0-0.1,0-0.2,0c-2.1,0.5-3.7,1.7-4.7,3.5c-0.3,0.5-0.5,1.1-0.7,1.7C0,13,0,13,0.1,13c0.1,0,0.2,0,0.3,0
						c0.1,0,0.1,0,0.1-0.1c0.3-1.1,0.8-2,1.5-2.8c1.7-1.7,3.7-2.4,6.1-2c1.8,0.3,3.2,1.2,4.3,2.7c0.5,0.6,0.8,1.4,1,2.1
						c0,0.1,0,0.1,0.1,0.1C13.7,13,13.8,13,14,12.9C14,13,14,13,14,12.9z M7,7.4c-2,0-3.5-1.6-3.5-3.5C3.4,2,5,0.5,7,0.5
						c2,0,3.5,1.6,3.5,3.5C10.5,5.8,9,7.4,7,7.4z"/>
				</g>
			</g>
		</g>
	</g>
</g>
</svg>
