<?xml version="1.0" encoding="utf-8"?>
<!-- Generator: Adobe Illustrator 22.1.0, SVG Export Plug-In . SVG Version: 6.00 Build 0)  -->
<svg version="1.1" id="图层_1" xmlns="http://www.w3.org/2000/svg" xmlns:xlink="http://www.w3.org/1999/xlink" x="0px" y="0px"
	 viewBox="0 0 13 12" style="enable-background:new 0 0 13 12;" xml:space="preserve">
<style type="text/css">
	.st0{fill:#FF7C44;}
</style>
<title>Fill 1</title>
<desc>Created with Sketch.</desc>
<g id="Page-1">
	<g id="场外交易-卖出" transform="translate(-903.000000, -169.000000)">
		<g id="弹出" transform="translate(664.000000, 54.000000)">
			<g id="_x31_" transform="translate(69.000000, 79.000000)">
				<g id="Group-13" transform="translate(59.000000, 0.666667)">
					<g transform="translate(94.000000, 26.000000)">
						<g transform="translate(17.000000, 6.233327)">
							<path id="Fill-1" class="st0" d="M13,4H8.5v0.6c0.6,0.1,1.1,0.1,1.3,0.2c0.2,0.1,0.4,0.2,0.4,0.4c0,0.1,0,0.4-0.1,0.6
								C10,6.2,9.9,6.5,9.7,6.8C9.5,7.5,9.2,8.3,8.8,9.1c-0.3,0.9-0.8,2-1.3,3.2C6.7,10.3,6,8.7,5.6,7.7C5.1,6.7,4.8,6,4.7,5.5
								c0-0.1-0.1-0.2-0.1-0.3c0-0.1,0-0.1,0-0.2c0-0.1,0.1-0.2,0.3-0.3C5.1,4.7,5.4,4.6,6,4.6V4H0v0.6c0.2,0,0.4,0.1,0.5,0.1
								c0.1,0,0.3,0.1,0.5,0.2C1.3,5,1.4,5.2,1.5,5.3c0.1,0.1,0.2,0.3,0.3,0.6c0.3,0.7,0.8,2,1.6,3.8C4.2,11.5,5,13.2,5.7,15h1.6
								c0.4-0.8,0.7-1.7,1.1-2.7c0.4-0.9,0.7-1.8,1.1-2.6c0.4-0.9,0.7-1.6,1-2.3c0.3-0.7,0.5-1.2,0.7-1.5c0.1-0.3,0.2-0.5,0.4-0.6
								C11.6,5.2,11.8,5,12,4.9c0.2-0.1,0.3-0.2,0.5-0.2c0.2,0,0.3-0.1,0.5-0.1V4z"/>
						</g>
					</g>
				</g>
			</g>
		</g>
	</g>
</g>
</svg>
