<?xml version="1.0" encoding="utf-8"?>
<!-- Generator: Adobe Illustrator 22.1.0, SVG Export Plug-In . SVG Version: 6.00 Build 0)  -->
<svg version="1.1" id="图层_1" xmlns="http://www.w3.org/2000/svg" xmlns:xlink="http://www.w3.org/1999/xlink" x="0px" y="0px"
	 viewBox="0 0 16 13" style="enable-background:new 0 0 16 13;" xml:space="preserve">
<style type="text/css">
	.st0{filter:url(#Adobe_OpacityMaskFilter);}
	.st1{fill:#FFFFFF;}
	.st2{mask:url(#mask-2_1_);fill:#0ECF1D;}
	.st3{filter:url(#Adobe_OpacityMaskFilter_1_);}
	.st4{mask:url(#mask-2_2_);fill:#0ECF1D;}
</style>
<title>微信</title>
<desc>Created with Sketch.</desc>
<g id="Page-1">
	<g id="交易设置" transform="translate(-339.000000, -253.000000)">
		<g id="银行信息" transform="translate(328.000000, 193.000000)">
			<g id="_x32_" transform="translate(0.000000, 55.000000)">
				<g id="微信" transform="translate(11.000000, 5.000000)">
					<g id="Clip-2">
					</g>
					<defs>
						<filter id="Adobe_OpacityMaskFilter" filterUnits="userSpaceOnUse" x="6.6" y="4.4" width="9.4" height="8.6">
							<feColorMatrix  type="matrix" values="1 0 0 0 0  0 1 0 0 0  0 0 1 0 0  0 0 0 1 0"/>
						</filter>
					</defs>
					<mask maskUnits="userSpaceOnUse" x="6.6" y="4.4" width="9.4" height="8.6" id="mask-2_1_">
						<g class="st0">
							<polygon id="path-1_1_" class="st1" points="0,0 16,0 16,13 0,13 							"/>
						</g>
					</mask>
					<path id="Fill-1" class="st2" d="M16,8.4c0-2.2-2.2-4-4.7-4c-2.6,0-4.7,1.8-4.7,4c0,2.2,2.1,4,4.7,4c0.6,0,1.1-0.1,1.7-0.3
						l1.5,0.8L14,11.6C15.2,10.8,16,9.7,16,8.4z M9.8,7.7c-0.3,0-0.6-0.3-0.6-0.6c0-0.3,0.3-0.6,0.6-0.6c0.4,0,0.7,0.3,0.7,0.6
						C10.4,7.5,10.2,7.7,9.8,7.7z M12.8,7.7c-0.3,0-0.6-0.3-0.6-0.6c0-0.3,0.3-0.6,0.6-0.6c0.4,0,0.7,0.3,0.7,0.6
						C13.5,7.5,13.2,7.7,12.8,7.7z"/>
					<defs>
						<filter id="Adobe_OpacityMaskFilter_1_" filterUnits="userSpaceOnUse" x="0" y="0" width="11.4" height="10.3">
							<feColorMatrix  type="matrix" values="1 0 0 0 0  0 1 0 0 0  0 0 1 0 0  0 0 0 1 0"/>
						</filter>
					</defs>
					<mask maskUnits="userSpaceOnUse" x="0" y="0" width="11.4" height="10.3" id="mask-2_2_">
						<g class="st3">
							<polygon id="path-1_2_" class="st1" points="0,0 16,0 16,13 0,13 							"/>
						</g>
					</mask>
					<path id="Fill-3" class="st4" d="M10.8,3.9c0.2,0,0.4,0,0.5,0c-0.5-2.3-2.9-4-5.7-4C2.6,0,0,2.1,0,4.8c0,1.6,0.8,2.8,2.3,3.8
						l-0.6,1.7l2-1c0.7,0.1,1.3,0.3,2,0.3c0.2,0,0.4,0,0.5,0C6.1,9.2,6,8.8,6,8.4C6,5.9,8.1,3.9,10.8,3.9z M7.8,2.4
						c0.4,0,0.7,0.3,0.7,0.7c0,0.4-0.3,0.7-0.7,0.7c-0.4,0-0.9-0.3-0.9-0.7C6.9,2.7,7.4,2.4,7.8,2.4z M3.8,3.8C3.4,3.8,3,3.5,3,3.1
						c0-0.4,0.4-0.7,0.9-0.7c0.4,0,0.7,0.3,0.7,0.7C4.5,3.5,4.2,3.8,3.8,3.8z"/>
				</g>
			</g>
		</g>
	</g>
</g>
</svg>
