<?xml version="1.0" encoding="utf-8"?>
<!-- Generator: Adobe Illustrator 22.1.0, SVG Export Plug-In . SVG Version: 6.00 Build 0)  -->
<svg version="1.1" id="图层_1" xmlns="http://www.w3.org/2000/svg" xmlns:xlink="http://www.w3.org/1999/xlink" x="0px" y="0px"
	 viewBox="0 0 14 14" style="enable-background:new 0 0 14 14;" xml:space="preserve">
<style type="text/css">
	.st0{fill:#FF9B9B;}
	.st1{fill:#FFFFFF;}
</style>
<title>未认证 copy 2</title>
<desc>Created with Sketch.</desc>
<g id="Page-1">
	<g id="安全设置-完成谷歌认证" transform="translate(-411.000000, -375.000000)">
		<g id="登录信息" transform="translate(319.000000, 193.000000)">
			<g id="_x32_" transform="translate(8.000000, 60.000000)">
				<g id="Group-9" transform="translate(1.000000, 0.000000)">
					<g id="未认证-copy-2" transform="translate(83.000000, 122.000000)">
						<circle id="Oval-4" class="st0" cx="7" cy="7" r="7"/>
						<g id="错误" transform="translate(4.000000, 4.000000)">
							<path id="Fill-1" class="st1" d="M3.4,3l2.5-2.5C6,0.4,6,0.2,5.9,0.1C5.8,0,5.6,0,5.5,0.1L3,2.6L0.5,0.1C0.4,0,0.2,0,0.1,0.1
								C0,0.2,0,0.4,0.1,0.5L2.6,3L0.1,5.5C0,5.6,0,5.8,0.1,5.9C0.1,5.9,0.2,6,0.3,6c0.1,0,0.2,0,0.2-0.1L3,3.4l2.5,2.5
								C5.5,6,5.6,6,5.7,6c0.1,0,0.2,0,0.2-0.1C6,5.8,6,5.6,5.9,5.5L3.4,3z"/>
						</g>
					</g>
				</g>
			</g>
		</g>
	</g>
</g>
</svg>
