<?xml version="1.0" encoding="utf-8"?>
<!-- Generator: Adobe Illustrator 22.1.0, SVG Export Plug-In . SVG Version: 6.00 Build 0)  -->
<svg version="1.1" id="图层_1" xmlns="http://www.w3.org/2000/svg" xmlns:xlink="http://www.w3.org/1999/xlink" x="0px" y="0px"
	 viewBox="0 0 14 14" style="enable-background:new 0 0 14 14;" xml:space="preserve">
<style type="text/css">
	.st0{fill:#ACFFCC;}
	.st1{fill:#2EE777;}
</style>
<title>已认证 copy 2</title>
<desc>Created with Sketch.</desc>
<g id="Page-1">
	<g id="安全设置-完成谷歌认证" transform="translate(-411.000000, -256.000000)">
		<g id="登录信息" transform="translate(319.000000, 193.000000)">
			<g id="_x31_" transform="translate(8.000000, 0.000000)">
				<g id="Group-8" transform="translate(1.000000, 0.000000)">
					<g id="已认证-copy-2" transform="translate(83.000000, 63.000000)">
						<circle id="Oval-4" class="st0" cx="7" cy="7" r="7"/>
						<path id="对勾" class="st1" d="M6.3,10.3c-0.2,0-0.3-0.1-0.4-0.2c0,0,0,0,0,0l-2-2.6c-0.1-0.1-0.1-0.3,0-0.4
							C3.9,7,4.1,7,4.2,7.1l2,2.6c0,0,0,0,0.1,0l4.5-5c0.1-0.1,0.3-0.1,0.4,0c0.1,0.1,0.1,0.3,0,0.4l-4.5,5
							C6.5,10.2,6.4,10.3,6.3,10.3z"/>
					</g>
				</g>
			</g>
		</g>
	</g>
</g>
</svg>
