<?xml version="1.0" encoding="utf-8"?>
<!-- Generator: Adobe Illustrator 22.1.0, SVG Export Plug-In . SVG Version: 6.00 Build 0)  -->
<svg version="1.1" id="图层_1" xmlns="http://www.w3.org/2000/svg" xmlns:xlink="http://www.w3.org/1999/xlink" x="0px" y="0px"
	 viewBox="0 0 16 16" style="enable-background:new 0 0 16 16;" xml:space="preserve">
<style type="text/css">
	.st0{fill:none;stroke:#32BAF7;stroke-width:0.88;stroke-linecap:round;}
	.st1{fill:none;stroke:#32BAF7;stroke-width:0.8;}
</style>
<title>资产icon</title>
<desc>Created with Sketch.</desc>
<g id="Page-1">
	<g id="资金记录" transform="translate(-146.000000, -343.000000)">
		<g id="标题--灰" transform="translate(119.000000, 322.000000)">
			<g id="_x31_" transform="translate(0.000000, 18.000000)">
				<g id="资产icon" transform="translate(28.000000, 0.000000)">
					<g transform="translate(0.299988, 3.000000)">
						<path id="Oval-4" class="st0" d="M9.4,1.4C8.6,1.1,7.8,1,7,1C3.1,1,0,4.1,0,8s3.1,7,7,7s7-3.1,7-7c0-1-0.2-2-0.6-2.8"/>
						<path id="Rectangle-3" class="st1" d="M7.8,5.3l1.9,1.9c0.4,0.4,0.4,1,0,1.4l-1.9,1.9c-0.4,0.4-1,0.4-1.4,0L4.5,8.6
							c-0.4-0.4-0.4-1,0-1.4l1.9-1.9C6.8,4.9,7.4,4.9,7.8,5.3z"/>
						<path id="Rectangle-12" class="st1" d="M12,1.2C12,1.2,12,1.2,12,1.2C11.9,1.2,11.9,1.2,12,1.2l-1.9,1.9c0,0,0,0.1,0,0.1
							c0,0,0,0,0,0c0,0,0.1,0,0.1,0L12,1.3C12,1.3,12,1.2,12,1.2z"/>
						<path id="Rectangle-12-Copy" class="st1" d="M13.2,3C13.2,3,13.2,3,13.2,3C13.1,3,13.1,3,13.2,3l-1.9,1.9c0,0,0,0.1,0,0.1
							c0,0,0,0,0,0c0,0,0.1,0,0.1,0l1.8-1.9C13.2,3.1,13.2,3,13.2,3z"/>
					</g>
				</g>
			</g>
		</g>
	</g>
</g>
</svg>
